<?xml version="1.0" encoding="utf-8"?>
<!-- Generator: Adobe Illustrator 22.1.0, SVG Export Plug-In . SVG Version: 6.00 Build 0)  -->
<svg version="1.1" xmlns="http://www.w3.org/2000/svg" xmlns:xlink="http://www.w3.org/1999/xlink" x="0px" y="0px"
	 viewBox="0 0 612 792" style="enable-background:new 0 0 612 792;" xml:space="preserve">
<style type="text/css">
	.st0{display:none;}
	.st1{display:inline;fill:#F1942F;}
	.st2{display:inline;}
	.st3{fill:#F1942F;}
	.st4{fill:#F19630;}
	.st5{fill:#D84327;}
	.st6{fill:#902C20;}
	.st7{fill:#C3452A;}
	.st8{fill:#942C20;}
	.st9{fill:#9A2E21;}
	.st10{fill:#DC712C;}
	.st11{fill:#B13425;}
	.st12{fill:#CF5A2B;}
	.st13{fill:#D86A2B;}
	.st14{fill:#D24228;}
	.st15{fill:#E8862E;}
	.st16{fill:#E17C30;}
	.st17{fill:#CB542A;}
	.st18{fill:#D4642B;}
	.st19{fill:#EB8C2F;}
	.st20{fill:#9B2E21;}
	.st21{fill:#BD3A27;}
	.st22{fill:#C84E2A;}
	.st23{fill:#A63123;}
	.st24{fill:#CA4028;}
	.st25{fill:#B73626;}
	.st26{fill:#A12F22;}
	.st27{fill:#C6492A;}
	.st28{fill:#E0772F;}
	.st29{fill:#D25F2B;}
	.st30{fill:#EF9130;}
	.st31{fill:#E6812E;}
	.st32{fill:#DB6F2B;}
	.st33{fill:#DE732C;}
	.st34{fill:#C03C27;}
	.st35{fill:#AB3324;}
	.st36{fill:#C63D27;}
	.st37{fill:#A93224;}
	.st38{fill:#952D20;}
	.st39{fill:#A03022;}
	.st40{fill:#A33023;}
	.st41{fill:#E0782F;}
	.st42{fill:#C24329;}
	.st43{fill:#B13525;}
	.st44{fill:#E27C30;}
	.st45{fill:#CC4128;}
	.st46{fill:#B63826;}
	.st47{fill:#D34428;}
	.st48{fill:#BE3E28;}
	.st49{fill:#C74629;}
	.st50{fill:#C5472A;}
	.st51{fill:#CD572A;}
	.st52{fill:#CA522A;}
	.st53{fill:#C74D2A;}
	.st54{fill:#D4632B;}
	.st55{fill:#D05E2B;}
	.st56{fill:#272220;}
	.st57{fill:#FFFFFF;}
	.st58{fill:#F6DB4A;}
	.st59{opacity:0.43;}
	.st60{fill:none;}
	.st61{fill:#E6E7E8;}
	.st62{fill:none;stroke:#FFFFFF;stroke-width:3;}
	.st63{fill:#231F20;}
</style>
<g id="Layer_4" class="st0">
	<rect x="1" y="106" class="st1" width="614" height="614"/>
</g>
<g id="Layer_1" class="st0">
	<g class="st2">
		<path class="st3" d="M125.3,327.3c0,3.1,0,6.1,0,9.2c0,0.5-0.1,0.7-0.6,0.7c-0.8,0-1.7,0-2.5,0c-0.6,0-0.8-0.1-0.8-0.7
			c0-5.7,0-11.4,0-17.1c0-0.5,0-0.9,0-1.4c0-0.4,0.1-0.5,0.5-0.5c0.9,0,1.8,0,2.7,0c0.5,0,0.7,0.1,0.7,0.7
			C125.3,321.2,125.3,324.2,125.3,327.3z"/>
		<path class="st3" d="M103.3,325.8c-1.2-2.7-4-3.9-6.8-3.1c-1.1,0.3-2,0.9-2.7,1.8c-0.2-0.2-0.1-0.3-0.1-0.5c0-1.9,0-3.9,0-5.8
			c0-0.7-0.2-0.8-0.8-0.8c-0.8,0.1-1.7,0-2.5,0c-0.5,0-0.6,0.1-0.6,0.6c0,3,0,6,0,8.9c0,3.2,0,6.4,0,9.5c0,0.5,0.1,0.7,0.7,0.6
			c0.9,0,1.8,0,2.7,0c0.3,0,0.5-0.1,0.4-0.5c0-0.4,0-0.8,0-1.4c0.5,0.8,1,1.3,1.6,1.6c2.8,1.3,6.5,0.8,8.1-2.7
			C104.6,331.4,104.6,328.6,103.3,325.8z M100.3,330c0,1-0.1,1.9-0.6,2.8c-0.6,1.1-1.4,1.7-2.7,1.7c-1.2,0-2.2-0.5-2.7-1.6
			c-1-2-1-4,0-5.9c0.5-1,1.4-1.5,2.6-1.6c1.2,0,2.1,0.5,2.7,1.6C100.1,328,100.3,329,100.3,330z"/>
		<path class="st3" d="M87.9,334.4c0-2.5,0-5.1,0-7.6c0-2-0.8-3.2-2.8-3.8c-2.2-0.7-4.5-0.7-6.7,0c-1.8,0.6-3.1,1.8-3.4,3.8
			c-0.1,0.5,0.1,0.6,0.5,0.5c0.9,0,1.9,0,2.8,0c0.4,0,0.6-0.1,0.7-0.5c0.1-0.6,0.5-1.1,1.1-1.4c1-0.4,2-0.4,2.9,0
			c0.7,0.2,1,0.8,1,1.7c0,0.7-0.4,1.1-1,1.3c-0.6,0.2-1.3,0.3-1.9,0.4c-1.3,0.2-2.7,0.3-4,0.7c-1.8,0.7-2.6,1.9-2.6,3.9
			c0,1.9,1,3.3,2.7,3.8c2.4,0.7,4.6,0.4,6.6-1.1c0.1-0.1,0.2-0.2,0.3-0.1c0,0.2,0.1,0.4,0.1,0.6c0,0.5,0.3,0.7,0.8,0.6
			c1.1,0,2.1,0,3.3,0C88,336.2,87.9,335.3,87.9,334.4z M83.8,332.9c-0.3,1-0.9,1.6-1.9,1.8c-0.7,0.2-1.4,0.2-2.1,0
			c-0.8-0.2-1.3-0.7-1.4-1.4c-0.1-0.9,0.2-1.5,0.9-1.9c0.5-0.3,1.1-0.4,1.7-0.5c1-0.2,1.9-0.2,2.9-0.7
			C83.9,331.2,84,332.1,83.8,332.9z"/>
		<path class="st3" d="M109.7,330.9c1.5,0,3,0,4.6,0c1.2,0,2.3,0,3.5,0c1.8,0,1.8,0,1.7-1.8c-0.4-5.5-6.1-8.5-10.8-5.6
			c-2.8,1.8-4.1,5.6-3,9.1c1,3.2,3.8,5,7.3,4.9c3.1-0.2,5.2-1.6,6.2-4.3c0.1-0.4,0.1-0.5-0.3-0.5c-0.8,0-1.7,0-2.5,0
			c-0.3,0-0.5,0.1-0.7,0.4c-0.8,1.2-2.5,1.7-4.1,1.3c-1.3-0.3-2.1-1.4-2.2-2.9C109.2,331,109.3,330.9,109.7,330.9z M109.2,328
			c0.2-1.5,1.6-2.6,3.4-2.5c1.7,0.1,2.5,1,2.9,2.7c0.1,0.4-0.2,0.3-0.4,0.3c-0.9,0-1.8,0-2.7,0c-0.9,0-1.8,0-2.7,0
			C109.3,328.5,109.2,328.3,109.2,328z"/>
		<g>
			<path class="st4" d="M63.3,339.8c-1.9,0.6-3.9,1-5.9,1.3c-5.3,0.9-10.7,1.1-16.1,1.1c-0.5,0-0.6-0.1-0.5-0.6
				c0.5-2.1,0.9-4.3,1.4-6.4c0.1-0.5,0.3-0.6,0.8-0.6c6.3,0,12.6-0.5,18.8-1.9c0.4-0.1,0.8-0.2,1.2-0.3c0.3,0.3,0.2,0.6,0.2,0.9
				c0,1.8,0,3.6,0,5.4C63.1,339,63.1,339.4,63.3,339.8z"/>
			<path class="st4" d="M62.1,319.4c0.5-0.1,1-0.2,1.6-0.3c0.2,0.2,0.2,0.4,0.2,0.6c0,1.9,0,3.9,0,5.8c0,0.1,0,0.2,0,0.3
				c-0.1,0.4-0.5,0.5-0.8,0.6c-0.7,0.1-1.4,0.4-2.2,0.3c-1.9,0.2-3.7,0.5-5.6,0.6c-2.1,0.1-4.2,0.2-6.3,0.2c-0.5,0-0.6-0.1-0.5-0.6
				c0.1-0.5,0.3-1.1,0.3-1.7c-0.1-0.5,0.1-1,0.2-1.5c0.2-0.8,0.3-1.6,0.5-2.4c0.2-0.8,0.3-0.9,1.1-0.9c2.5,0,5-0.2,7.5-0.5
				c0.3-0.1,0.7,0,1-0.1c0.6-0.1,1.3-0.2,1.9-0.3C61.3,319.4,61.7,319.4,62.1,319.4z"/>
			<path class="st5" d="M60.5,316.8c-1.8-0.3-3.5-0.6-5.3-0.8c-0.7-0.1-1.4-0.2-2.1-0.2c-0.3,0-0.5-0.1-0.4-0.5
				c0.4-1.8,0.8-3.6,1.2-5.4c0-0.2,0-0.4,0.4-0.4c2,0.2,4.1,0.3,6.1,0.7c0.2,0.2,0.2,0.5,0.2,0.7c-0.1,1.9,0,3.8,0,5.7
				C60.6,316.6,60.6,316.7,60.5,316.8z"/>
			<path class="st5" d="M58.2,320.1c-0.5,0.2-1,0.2-1.5,0.2c-2,0.2-4.1,0.4-6.2,0.3c-0.6,0-0.7,0.2-0.8,0.7
				c-0.3,1.3-0.5,2.6-0.9,3.9c-0.7,0-1.3-0.1-2-0.1c-0.3,0-0.4-0.1-0.3-0.4c0.5-2.3,1-4.5,1.4-6.8c0.1-0.3,0.2-0.4,0.4-0.3
				c3.3,0.2,6.5,0.5,9.7,1.1C58.3,319.1,58.2,319.6,58.2,320.1z"/>
			<path class="st6" d="M70.2,322.6c1.4,0.8,2.5,1.8,2.5,3.6c0,0.8-0.3,1.4-0.9,2c-0.2,0.3-0.5,0.5-0.7,0.7
				c-0.2,0.2-0.4,0.3-0.6,0.5c-0.2,0.1-0.4,0.1-0.5-0.1c-0.2-0.6-0.1-1.2-0.1-1.8c0-1.3,0-2.7,0-4C69.9,323.1,69.8,322.7,70.2,322.6
				z"/>
			<path class="st7" d="M71.6,328.2c0.5-0.6,0.9-1.2,1-2c0,2.5,0,5,0,7.5c0,0.6-0.2,1.2-0.7,1.7c-0.4,0.1-0.4-0.3-0.4-0.5
				c-0.1-0.5,0-1,0-1.4c0-1.5,0-2.9,0-4.4C71.5,328.8,71.6,328.5,71.6,328.2z"/>
			<path class="st8" d="M70.2,322.6c-0.3,0.5-0.1,1.1-0.1,1.6c-0.1,1.7,0,3.5,0,5.2c0,0.1,0,0.2-0.1,0.3c-0.2,0.1-0.3,0.2-0.5,0.1
				c-0.1-0.1-0.3-0.2-0.4-0.3c-0.1-0.2-0.2-0.4-0.2-0.6c0-1.6,0-3.2,0-4.8c0-0.2,0-0.3,0.1-0.4c0.2-0.3,0.4-0.6,0.6-0.9
				c0.1-0.1,0.2-0.3,0.4-0.3C70,322.5,70.1,322.5,70.2,322.6z"/>
			<path class="st9" d="M69.1,323.5c-0.2,0.6-0.1,1.2-0.1,1.9c0,1.4,0,2.7,0,4.1c-0.4-0.2-0.8-0.4-1.2-0.6c-0.1-0.2-0.2-0.4-0.2-0.7
				c0-1.2,0-2.3,0-3.5c0-0.4,0.3-0.6,0.6-0.7c0.2-0.1,0.3-0.2,0.5-0.3C68.8,323.5,68.9,323.4,69.1,323.5
				C69.1,323.4,69.1,323.5,69.1,323.5z"/>
			<path class="st6" d="M68.2,312.6c1.1,0.6,1.9,1.4,1.7,2.9c-0.1,0.4-0.2,0.7-0.4,0.9c-0.1,0.2-0.3,0.3-0.5,0.5
				c-0.2,0.1-0.3,0.2-0.6,0.3c-0.1,0-0.2,0-0.2-0.1c-0.2-0.2-0.2-0.4-0.2-0.7c0-1.1,0-2.1,0-3.2C68,313,68.1,312.8,68.2,312.6z"/>
			<path class="st10" d="M65.6,318.5c0.1-0.1,0.2-0.1,0.2-0.3c0.2-0.2,0.4-0.1,0.6,0c0.2,0.1,0.2,0.4,0.2,0.6c0,2,0.1,4,0,6.1
				c0,0.1-0.1,0.2-0.2,0.3c-0.3,0.1-0.6,0.5-0.9,0.1c0-2,0-4,0-5.9C65.4,319.1,65.4,318.8,65.6,318.5z"/>
			<path class="st11" d="M65,318c-0.3,0-0.5-0.1-0.8-0.2c-0.2-0.2-0.2-0.4-0.2-0.7c0-1.8,0-3.6,0-5.3c0-0.3-0.1-0.8,0.5-0.7
				c0.3,0,0.6,0.1,0.8,0.3c-0.2,1.9,0,3.8-0.1,5.6C65.2,317.3,65.2,317.7,65,318z"/>
			<path class="st12" d="M69.4,329.7c0.2,0,0.3-0.1,0.5-0.1c0.2,0.2,0.2,0.4,0.2,0.6c0,1.8,0.1,3.7,0,5.5c0,0.4,0.1,0.8,0.1,1.2
				c-0.2,0.2-0.5,0.4-0.8,0.5c-0.4-0.1-0.3-0.4-0.3-0.6c0-2.1,0-4.2,0-6.3c0-0.2,0.1-0.4,0.2-0.6C69.3,329.9,69.4,329.8,69.4,329.7z
				"/>
			<path class="st13" d="M67.6,330.8c0.1-0.1,0.3-0.2,0.5-0.2c0.3,0.3,0.2,0.6,0.2,0.9c0,1.7,0,3.4,0,5.1c0,0.5,0,1,0.1,1.4
				c-0.3,0.2-0.6,0.3-0.9,0.4c-0.4-0.5-0.2-1.1-0.2-1.6c0-1.7,0-3.5,0-5.2C67.2,331.2,67.3,330.9,67.6,330.8z"/>
			<path class="st14" d="M60.5,316.8c-0.3-0.6-0.1-1.3-0.1-2c0-1.6,0-3.2,0-4.7c0.3,0,0.5,0,0.8,0.1c0.2,0.2,0.2,0.5,0.2,0.8
				c0,1.7,0,3.4,0,5.1c0,0.3,0,0.6-0.2,0.8C60.9,316.9,60.7,316.9,60.5,316.8z"/>
			<path class="st15" d="M63.9,332.1c0.2-0.2,0.5-0.2,0.8-0.3c0.3,0.3,0.2,0.6,0.2,0.9c0,1.7,0,3.5,0,5.2c0,0.5,0,0.9,0.1,1.4
				c-0.2,0.2-0.5,0.2-0.8,0.2c-0.5-0.1-0.3-0.5-0.3-0.7c0-1.6,0-3.2,0-4.7C63.9,333.4,63.8,332.7,63.9,332.1z"/>
			<path class="st16" d="M66.2,338.9c-0.2,0.2-0.5,0.2-0.8,0.3c-0.4,0-0.4-0.3-0.4-0.6c0-2.1,0-4.3,0-6.4c0-0.2,0.1-0.4,0.2-0.5
				c0.2-0.1,0.4-0.2,0.7-0.2c0.3,0.3,0.2,0.6,0.2,0.9c0,1.7,0,3.4,0,5.1C66.1,337.9,66.1,338.4,66.2,338.9z"/>
			<path class="st17" d="M70.2,336.9c-0.4-0.2-0.3-0.7-0.3-1c0.1-1.5,0-3,0-4.5c0-0.6,0-1.2-0.1-1.8c0-0.1,0.1-0.2,0.1-0.2
				c0.1,0,0.3-0.1,0.4-0.1c0.3,0,0.4,0.2,0.4,0.5c-0.1,1.3,0.1,2.7,0,4c0,0.7,0.1,1.3,0,2c0,0.3,0,0.6-0.1,0.9
				C70.6,336.7,70.4,336.9,70.2,336.9z"/>
			<path class="st18" d="M68.4,338c-0.4-0.1-0.3-0.4-0.3-0.6c0-2.3,0-4.5,0-6.8c0.2-0.1,0.4-0.2,0.6-0.3c0.2,0.2,0.2,0.4,0.2,0.7
				c0,2.2,0,4.3,0,6.5c0,0.1,0,0.2-0.1,0.3C68.8,337.9,68.6,337.9,68.4,338z"/>
			<path class="st19" d="M63.9,332.1c0.1,0.2,0.1,0.4,0.1,0.7c0,2.1,0,4.2,0,6.2c0,0.2-0.1,0.4,0.1,0.5c-0.1,0.1-0.3,0.1-0.5,0.1
				c-0.3,0.1-0.4-0.1-0.5-0.3c-0.1-0.2-0.1-0.4-0.1-0.6c0-1.9,0-3.7,0-5.6c0-0.3,0-0.7,0.2-0.9C63.5,332.1,63.7,332,63.9,332.1z"/>
			<path class="st20" d="M67,311.9c0.3,0.1,0.6,0.2,0.8,0.4c0.1,1.3,0,2.6,0,3.9c0,0.4,0,0.7,0.1,1.1c0.1,0.2-0.1,0.4-0.2,0.5
				c-0.1,0.1-0.3,0.1-0.4,0.2c-0.1,0-0.2,0-0.4-0.1c-0.3-0.2-0.3-0.5-0.3-0.8c0-1.5,0-3,0-4.5C66.6,312.4,66.5,312,67,311.9z"/>
			<path class="st21" d="M63.5,317.6c-0.1,0-0.3-0.1-0.4-0.1c-0.4-0.1-0.5-0.4-0.5-0.7c0-1.8,0-3.7,0-5.5c0-0.2,0-0.5,0.3-0.6
				c0.4,0,0.7,0.1,1,0.3c-0.3,0.3-0.3,0.7-0.3,1.2c0,1.5,0,3,0,4.6C63.7,316.9,63.8,317.3,63.5,317.6z"/>
			<path class="st22" d="M70.7,336.6c-0.3-0.4-0.1-0.8-0.1-1.2c0-1,0-2.1,0-3.1c0-0.9,0-1.8,0-2.7c0-0.2-0.1-0.3-0.2-0.3
				c0.2-0.1,0.3-0.3,0.5-0.4c0.5,0,0.4,0.4,0.4,0.7c0,1.4-0.1,2.9,0,4.3c0,0.7-0.2,1.4,0,2.1C71.2,336.3,71,336.4,70.7,336.6z"/>
			<path class="st23" d="M66.1,318.4c-0.1,0-0.2-0.1-0.4-0.1c-0.1,0-0.2-0.1-0.3-0.1c-0.2-0.3-0.2-0.6-0.2-0.9c0-1.6,0-3.2,0-4.8
				c0-0.4,0-0.8,0.3-1.1c0.3,0,0.5,0.1,0.8,0.3c-0.1,2.1-0.1,4.2,0,6.3C66.5,318.2,66.3,318.3,66.1,318.4z"/>
			<path class="st24" d="M61.2,316.9c0-2.2,0-4.5,0-6.7c0.2,0,0.5,0,0.7,0.1c0.2,0.3,0.2,0.6,0.2,0.9c0,1.6,0,3.2,0,4.9
				c0,0.4,0.1,0.8-0.3,1C61.5,317,61.3,317.1,61.2,316.9z"/>
			<path class="st25" d="M63.5,317.6c0-2,0-4,0-6c0-0.4,0-0.7,0.5-0.7c0.2,0,0.3,0,0.4,0.1c-0.4,0.1-0.3,0.4-0.3,0.6c0,2,0,4,0,6.1
				C63.9,317.7,63.7,317.6,63.5,317.6z"/>
			<path class="st26" d="M66.4,318.1c-0.3,0-0.3-0.3-0.3-0.5c0-1.8,0-3.6,0-5.4c0-0.2-0.1-0.5,0.3-0.5c0.2,0,0.4,0.1,0.6,0.2
				c-0.2,0.1-0.2,0.4-0.2,0.6c0,1.6,0,3.2,0,4.7c0,0.2-0.1,0.5,0.3,0.6c0,0.2-0.1,0.3-0.3,0.3C66.6,318.2,66.5,318.2,66.4,318.1z"/>
			<path class="st27" d="M71.4,336c-0.5-0.6-0.1-1.2-0.1-1.8c-0.2-1.4,0.1-2.8-0.1-4.1c-0.1-0.4,0.4-0.9-0.2-1.3
				c0.2-0.2,0.4-0.4,0.7-0.6c0.2,0.2,0.1,0.5,0.1,0.7c0,1.9,0,3.9,0,5.8c0,0.2-0.2,0.5,0.2,0.7C71.8,335.6,71.6,335.8,71.4,336z"/>
			<path class="st28" d="M66.2,338.9c-0.4-0.1-0.3-0.4-0.3-0.7c0-2.3,0-4.5,0-6.8c0.2-0.1,0.4-0.2,0.7-0.2c0.1,0.4,0.1,0.8,0.1,1.2
				c0,1.9,0,3.8,0,5.7c0,0.2,0,0.4-0.1,0.6C66.4,338.9,66.3,338.9,66.2,338.9z"/>
			<path class="st29" d="M68.9,337.7c-0.2-0.2-0.1-0.5-0.1-0.7c0-2.3,0-4.5,0-6.8c0.2-0.1,0.3-0.2,0.5-0.3c0,2.3,0,4.5,0,6.8
				c0,0.2-0.1,0.5,0.1,0.7C69.3,337.6,69.1,337.7,68.9,337.7z"/>
			<path class="st30" d="M63.4,332.2c0,2.3,0,4.5,0,6.8c0,0.3-0.1,0.6,0.3,0.7c-0.1,0.1-0.3,0.1-0.4,0.1c-0.5,0-0.4-0.3-0.4-0.6
				c0-2.3,0-4.5,0-6.8C63,332.2,63.2,332.2,63.4,332.2z"/>
			<path class="st31" d="M65.2,331.6c0,2.3,0,4.5,0,6.8c0,0.2-0.1,0.5,0.2,0.7c-0.1,0.1-0.2,0.1-0.4,0.1c-0.4-0.1-0.3-0.4-0.3-0.7
				c0-2.3,0-4.5,0-6.8C64.8,331.7,65,331.7,65.2,331.6z"/>
			<path class="st32" d="M67.6,330.8c-0.4,0.6-0.2,1.2-0.2,1.8c-0.1,1.3,0.1,2.5,0,3.8c0,0.7,0.1,1.4,0.1,2
				c-0.1,0.1-0.2,0.1-0.3,0.1c-0.4,0.1-0.4-0.1-0.4-0.4c-0.1-0.3-0.1-0.7-0.1-1c0.1-1.8,0.1-3.6,0-5.4c0-0.3,0-0.5,0.3-0.7
				C67.1,330.9,67.3,330.8,67.6,330.8z"/>
			<path class="st33" d="M66.9,331c-0.2,0.3-0.1,0.6-0.1,0.9c0,0.1,0.1,0.2,0.1,0.3c-0.1,1.5,0.1,3,0,4.6c0,0.5-0.2,1.2,0.3,1.6
				c-0.2,0.2-0.4,0.2-0.7,0.3c-0.2-0.1-0.1-0.4-0.1-0.5c0-2.1,0-4.3,0-6.4c0-0.2,0-0.4,0.1-0.6C66.6,331.1,66.8,331,66.9,331z"/>
			<path class="st34" d="M63,310.6c-0.2,0.1-0.1,0.3-0.1,0.5c0,1.9,0,3.8,0,5.7c0,0.3,0.1,0.5,0.3,0.6c-0.3,0-0.5-0.1-0.8-0.2
				c-0.2-0.3-0.2-0.6-0.2-0.9c0-1.6,0-3.3,0-4.9c0-0.3,0-0.7,0.2-0.9C62.6,310.5,62.8,310.5,63,310.6z"/>
			<path class="st19" d="M63.7,325.9c0-2.3,0-4.5,0-6.8c0.1-0.1,0.3-0.1,0.5-0.1c0.1,0.1,0.2,0.3,0.2,0.5c0,2.1,0.1,4.1,0,6.2
				c-0.1,0.2-0.2,0.3-0.3,0.4C63.9,326,63.8,326,63.7,325.9z"/>
			<path class="st35" d="M65.6,311.4c-0.1,0.4-0.1,0.8-0.1,1.1c0,1.9,0,3.7,0,5.6c-0.2,0-0.4,0-0.5-0.2c0-2,0-4,0-6
				c0-0.3-0.1-0.6,0.3-0.7C65.4,311.3,65.5,311.3,65.6,311.4z"/>
			<path class="st36" d="M62.4,310.5c0,2.2,0,4.5,0,6.7c-0.2-0.1-0.5,0-0.7-0.1c0.2-0.3,0.1-0.5,0.1-0.8c0-2,0-3.9,0-5.9
				C62,310.4,62.2,310.4,62.4,310.5z"/>
			<path class="st37" d="M65.5,325.4c0.3-0.1,0.5-0.2,0.8-0.2c0.2,0.8,0.2,1.7,0.1,2.6c0,0.2-0.1,0.4-0.3,0.5
				c-0.4-0.1-0.8-0.3-1.2-0.4c-0.3-0.6-0.1-1.3-0.2-1.9c0-0.1,0-0.1,0.1-0.2c0-0.1,0.1-0.1,0.1-0.2
				C65.1,325.4,65.3,325.3,65.5,325.4z"/>
			<path class="st38" d="M67.8,317.4c-0.2,0-0.3-0.2-0.3-0.4c0-1.5,0-2.9,0-4.4c0-0.1,0-0.3,0.2-0.3c0.2,0,0.4,0.1,0.5,0.3
				c0,1.3,0,2.6,0,3.9c0,0.2-0.1,0.5,0.3,0.6c0.1,0.2-0.1,0.3-0.2,0.4C68.1,317.5,68,317.6,67.8,317.4z"/>
			<path class="st39" d="M67.8,324.5c0,1.5,0,2.9,0,4.4c-0.3-0.1-0.5-0.2-0.8-0.3c-0.2-0.2-0.2-0.5-0.2-0.8c0-0.9,0-1.8,0-2.7
				c0-0.2,0.2-0.4,0.4-0.5c0.1-0.1,0.2-0.1,0.4-0.2C67.7,324.4,67.8,324.4,67.8,324.5z"/>
			<path class="st40" d="M66.9,324.9c0.3,0.6,0.1,1.3,0.1,1.9c0,0.6,0,1.2,0,1.7c-0.3-0.1-0.6-0.2-0.9-0.3c0.3-0.9,0.1-1.9,0.1-2.8
				c0-0.1,0-0.2,0.1-0.2c0,0,0.1-0.1,0.1-0.1c0.1-0.1,0.2-0.2,0.4-0.2C66.8,324.8,66.9,324.9,66.9,324.9z"/>
			<path class="st15" d="M64.2,325.8c0-2.3,0-4.5,0-6.8c0.1-0.1,0.3-0.1,0.4-0.1c0.2,0.2,0.2,0.4,0.2,0.6c0,1.9,0,3.9,0,5.8
				c0,0.1,0,0.2-0.1,0.3C64.6,325.9,64.4,326,64.2,325.8z"/>
			<path class="st31" d="M64.6,325.7c0-2.3,0-4.5,0-6.8c0.1-0.1,0.2-0.1,0.4-0.1c0.2,0.2,0.2,0.5,0.2,0.7c0,1.8,0,3.6,0,5.3
				c0,0.3,0,0.5-0.2,0.7c0,0,0,0.1,0,0.1C64.8,325.8,64.7,325.8,64.6,325.7z"/>
			<path class="st41" d="M65.5,325.4c-0.1,0-0.3,0.1-0.4,0.1c0-2,0-4.1,0-6.1c0-0.3-0.1-0.6,0.3-0.8c0.1-0.1,0.2-0.1,0.3-0.1
				c0,2,0,4,0,6.1C65.6,324.9,65.7,325.2,65.5,325.4z"/>
			<path class="st42" d="M69.4,316.4c0.2-0.3,0.4-0.6,0.5-0.9c0,2.3,0.1,4.6,0,6.9c-0.1,0.1-0.2,0.2-0.2,0.3
				c-0.3-0.1-0.3-0.3-0.3-0.6C69.4,320.2,69.3,318.3,69.4,316.4z"/>
			<path class="st43" d="M64.6,325.7c0.1,0,0.3,0,0.4,0c0,0.7,0,1.4,0,2.1c-0.3,0-0.6-0.1-0.9-0.3c-0.4-0.4-0.4-1.1-0.1-1.6
				c0.1,0,0.2-0.1,0.3-0.1C64.3,325.8,64.5,325.8,64.6,325.7z"/>
			<path class="st44" d="M65.4,318.6c-0.2,0.3-0.1,0.5-0.1,0.8c0,1.8,0,3.6,0,5.3c0,0.3,0,0.5-0.1,0.8c0,0-0.1,0-0.1,0
				c0-2.3,0-4.5,0-6.8C65.1,318.6,65.2,318.6,65.4,318.6z"/>
			<path class="st45" d="M61,319.7c-0.6,0.1-1.3,0.3-1.9,0.3c-0.6-0.3-0.4-0.8-0.1-1.2c0.7,0.1,1.3,0.3,2,0.4
				C61.1,319.3,61.2,319.4,61,319.7z"/>
			<path class="st46" d="M63.9,325.9c0,0.5-0.1,1.1,0.1,1.6c-0.5-0.1-1-0.2-1.4-0.4c-0.2-0.4-0.2-0.7,0.3-0.9
				c0.3-0.1,0.5-0.2,0.8-0.3C63.7,325.9,63.8,325.9,63.9,325.9z"/>
			<path class="st47" d="M59,318.8c0.1,0.4-0.1,0.8,0.1,1.2c-0.3,0.2-0.6,0.1-0.9,0.1c-0.3-0.5-0.1-1-0.1-1.5
				C58.4,318.6,58.7,318.6,59,318.8z"/>
			<path class="st48" d="M62.9,326.2c-0.3,0.2-0.2,0.6-0.3,0.9c-0.6-0.1-1.2-0.3-1.8-0.4C61.5,326.4,62.2,326.3,62.9,326.2z"/>
			<path class="st49" d="M61,319.7c0-0.2,0-0.4-0.1-0.5c0.4,0,0.8,0.1,1.2,0.3C61.8,319.6,61.4,319.6,61,319.7z"/>
			<path class="st50" d="M69.4,316.4c0.2,0.2,0.1,0.4,0.1,0.7c0,1.6,0,3.2,0,4.8c0,0.3,0,0.6,0.1,0.8c-0.1,0.3-0.3,0.6-0.5,0.8
				c0,0,0,0,0,0c-0.1-0.1-0.2-0.3-0.2-0.5c0-2.1-0.1-4.1,0-6.2C69.1,316.7,69.3,316.5,69.4,316.4z"/>
			<path class="st51" d="M67.8,324.5c-0.1,0-0.2,0-0.3,0c0.1-2,0-3.9,0.1-5.9c0-0.3-0.1-0.6-0.1-0.9c0.1-0.1,0.2-0.2,0.3-0.3
				c0.1,0,0.3-0.1,0.4-0.1c0.4,0.1,0.3,0.4,0.3,0.6c0,1.8,0,3.6,0,5.5c0,0.2,0,0.4-0.2,0.6C68.2,324.2,68,324.3,67.8,324.5z"/>
			<path class="st52" d="M68.4,324c0-2,0-4,0-6c0-0.2,0.1-0.5-0.1-0.7c0.1-0.1,0.2-0.2,0.3-0.3c0,0,0.1,0,0.1,0
				c0.4,0.1,0.3,0.4,0.3,0.6c0,1.8,0,3.6,0,5.4c0,0.2-0.1,0.5-0.2,0.7C68.7,323.9,68.5,324,68.4,324z"/>
			<path class="st53" d="M68.8,323.7c0-2,0-4,0-6c0-0.2,0.1-0.5-0.1-0.7c0.1-0.2,0.2-0.2,0.4-0.3c0.2,0.2,0.1,0.4,0.1,0.7
				c0,2,0,4,0,6C69,323.5,68.9,323.6,68.8,323.7z"/>
			<path class="st13" d="M66.8,324.9c-0.1,0-0.3,0.1-0.4,0.1c0-2,0-4,0-6.1c0-0.2,0.1-0.6-0.3-0.6c0.1-0.1,0.2-0.2,0.3-0.2
				c0.1,0,0.2,0,0.4,0c0.4,0.7,0.3,1.6,0.2,2.3c0,1.1,0.1,2.2,0,3.4C67,324.2,67,324.6,66.8,324.9z"/>
			<path class="st54" d="M66.8,324.9c0-1.7,0.1-3.4,0.1-5.1c0-0.6,0-1.1-0.1-1.7c0.1-0.1,0.2-0.2,0.3-0.2c0.1,0,0.2,0,0.2,0
				c0.5,0.1,0.3,0.5,0.3,0.8c0,1.7,0,3.4,0,5.1c0,0.3,0,0.7-0.3,0.9c-0.1,0.1-0.3,0.2-0.4,0.3C66.9,324.9,66.8,324.9,66.8,324.9z"/>
			<path class="st55" d="M67.3,324.6c0.1-0.2,0.1-0.4,0.1-0.6c0-1.9,0-3.9,0-5.8c0-0.2,0-0.3-0.1-0.4c0.1,0,0.2-0.1,0.3-0.1
				c0.4,0.3,0.2,0.7,0.2,1.1c0,1.2,0.1,2.4,0,3.6c0,0.7,0.3,1.4-0.2,2C67.5,324.6,67.4,324.6,67.3,324.6z"/>
		</g>
	</g>
</g>
<g id="Layer_6">
	<g>
		<g>
			<g id="XMLID_1_">
				<g>
					<path class="st56" d="M500.7,182.5v436.8l-0.3,1.3c-0.9,3.6-23.8,89.1-187.2,148.3l-3.6,1.3L306,769
						c-171.9-56.5-193.6-144.9-194.4-148.6l-0.3-2.4l0.1-434.3c0.3-1.8,6.4-43.1,38.5-66.8c16.9-12.5,37.6-17.6,61.5-15.3
						C227.3,68,265.6,47.6,312,49c36.3,1.2,77.1,17.6,91.3,51.8c30.9,0.1,55.2,8.5,72.4,25C500.5,149.6,500.7,181.1,500.7,182.5z
						 M478.7,616.4V182.5c0-0.2-0.5-23.8-18.5-40.8c-14.2-13.5-35.8-19.7-64.3-18.5l-8.8,0.3l-2.3-8.5
						c-7.7-28.9-42.5-42.8-73.5-43.8c-30.5-1-70.4,10.5-82.4,46l-3,8.9l-9.2-1.5c-21.6-3.5-39.6-0.1-53.5,10.1
						c-22.8,16.6-28.9,46.7-29.8,51.5v430.4c1.3,4.2,7.8,22.3,29.1,45.1c22.4,24,65.9,58.1,146.9,85.2
						c76.9-28.4,118.9-62.5,140.7-86.2C470.4,638.3,477.2,620.8,478.7,616.4z"/>
					<path class="st57" d="M478.7,182.5v433.9c-1.5,4.4-8.3,21.9-28.7,44.3c-21.8,23.7-63.8,57.8-140.7,86.2
						c-80.9-27.1-124.5-61.2-146.9-85.2c-21.3-22.8-27.7-41-29.1-45.1V186.1c0.9-4.8,7.1-34.9,29.8-51.5
						c13.9-10.3,32-13.7,53.5-10.1l9.2,1.5l3-8.9c12-35.4,51.9-47,82.4-46c31,1,65.8,14.9,73.5,43.8l2.3,8.5l8.8-0.3
						c28.4-1.2,50.1,5,64.3,18.5C478.2,158.6,478.7,182.3,478.7,182.5z"/>
				</g>
				<g>
				</g>
			</g>
		</g>
		<path class="st58" d="M418.1,238.8c-25.5,0-47.5-14.4-58.5-35.6c-14.1,13.4-33.2,21.7-54.2,21.7c-19.9,0-38.1-7.5-52-19.7
			c-11.3,20-32.8,33.5-57.4,33.5c-14.6,0-28.1-4.8-39.1-12.9v383.8c0,0,44,66.2,145.6,103.4c136.1-53.7,147-103.4,147-103.4V230.8
			C440.2,235.9,429.5,238.8,418.1,238.8z M182.4,293.6c0-7.3,5.9-13.3,13.3-13.3c7.3,0,13.3,5.9,13.3,13.3c0,7.3-5.9,13.3-13.3,13.3
			C188.4,306.8,182.4,300.9,182.4,293.6z M215.9,345.1c-10.2,0-18.4-8.3-18.4-18.4s8.3-18.4,18.4-18.4s18.4,8.3,18.4,18.4
			S226.1,345.1,215.9,345.1z M268.4,319.4c0,7.9-6.5,14.4-14.4,14.4c-7.9,0-14.4-6.5-14.4-14.4v-43.6c0-7.9,6.5-14.4,14.4-14.4
			c7.9,0,14.4,6.5,14.4,14.4V319.4z"/>
		<g class="st59">
			<path class="st60" d="M327.2,221.7v481c2.5-1.1,4.9-2.2,7.3-3.3V219.2C332.2,220.2,329.7,221,327.2,221.7z"/>
			<path class="st60" d="M305.4,224.9c-19.9,0-38.1-7.5-52-19.7c-11.3,20-32.8,33.5-57.4,33.5c-14.6,0-28.1-4.8-39.1-12.9v383.8
				c0,0,44,66.2,145.6,103.4c1.1-0.4,2.1-0.8,3.1-1.3V224.9C305.6,224.9,305.5,224.9,305.4,224.9z"/>
			<path class="st60" d="M418.1,238.8c-3.3,0-6.6-0.3-9.8-0.7v419.1c36.9-27.9,41.2-47.4,41.2-47.4V230.8
				C440.2,235.9,429.5,238.8,418.1,238.8z"/>
			<path class="st3" d="M359.5,203.2c-7.2,6.8-15.7,12.3-25,16v480.2c33.2-15.1,56.9-29.6,73.8-42.3V238
				C387,234.9,369.1,221.6,359.5,203.2z"/>
			<path class="st3" d="M305.6,224.9v486.9c7.6-3,14.8-6,21.6-9v-481C320.4,223.7,313.1,224.8,305.6,224.9z"/>
		</g>
		<path class="st61" d="M418.1,238.8c-25.5,0-47.5-14.4-58.5-35.6c-14.1,13.4-33.2,21.7-54.2,21.7c-19.9,0-38.1-7.5-52-19.7
			c-11.3,20-32.8,33.5-57.4,33.5c-14.1,0-27.2-4.5-37.9-12c10.8,15.7,28.8,26,49.3,26c22.3,0,41.8-12.3,52-30.4
			c12.6,11.1,29,17.8,47.1,17.8c19,0,36.3-7.5,49.1-19.6c10,19.1,30,32.2,53,32.2c21.6,0,40.5-11.5,51-28.7
			C448.2,233.2,433.8,238.8,418.1,238.8z"/>
		<polygon class="st56" points="604,515.3 574.4,456 600.6,400.9 554.4,400.9 554.4,363 55.5,363 55.5,398.8 6.6,398.8 38.3,456 
			6.6,515.3 112.7,515.3 67.1,477.4 540.8,477.4 496.5,515.3 		"/>
		<g>
			<path class="st57" d="M90.9,451.7l7.9-64.4h20.7c3.6,0,6.6,0.3,9.2,1c2.5,0.7,4.6,1.7,6.2,3c1.6,1.3,2.8,2.8,3.6,4.6
				c0.8,1.8,1.2,3.8,1.2,6.1c0,1.8-0.2,3.6-0.7,5.3s-1.3,3.2-2.3,4.7c-1,1.4-2.4,2.7-4,3.8c-1.6,1.1-3.5,2.1-5.7,2.8
				c3.7,0.9,6.4,2.4,8.2,4.5c1.8,2.1,2.7,4.7,2.7,7.9c0,3-0.6,5.7-1.7,8.3s-2.7,4.7-4.8,6.6c-2.1,1.9-4.6,3.3-7.6,4.4
				c-3,1.1-6.4,1.6-10.1,1.6H90.9z M105.9,423.3l-2.4,19.4h10.9c2.1,0,3.9-0.3,5.3-0.8c1.5-0.6,2.7-1.4,3.7-2.4c1-1,1.7-2.3,2.1-3.7
				c0.5-1.4,0.7-3,0.7-4.7c0-2.3-0.7-4.2-2.2-5.6c-1.5-1.4-3.9-2.1-7.3-2.1H105.9z M106.9,415.3h8.6c4,0,7-0.9,9.2-2.8
				c2.2-1.9,3.2-4.7,3.2-8.6c0-2.7-0.8-4.7-2.3-5.9c-1.5-1.2-3.9-1.9-7.2-1.9h-9.2L106.9,415.3z"/>
			<path class="st57" d="M179.5,451.7h-5.8c-1.3,0-2.3-0.3-2.8-0.9c-0.5-0.6-0.8-1.4-0.8-2.4l0.4-6.2c-2,3.1-4.3,5.6-6.8,7.5
				c-2.5,1.8-5.3,2.7-8.3,2.7c-1.7,0-3.3-0.3-4.8-1c-1.5-0.7-2.8-1.7-3.9-3.1s-2-3-2.6-5.1c-0.6-2-1-4.4-1-7.1c0-2.7,0.3-5.4,1-8
				c0.7-2.6,1.7-5,2.9-7.3c1.3-2.3,2.8-4.4,4.6-6.3c1.8-1.9,3.8-3.5,6-4.9c2.2-1.4,4.6-2.4,7.2-3.2c2.6-0.8,5.3-1.1,8.1-1.1
				c2,0,4.1,0.2,6.2,0.4c2.1,0.3,4.1,0.8,6.1,1.6L179.5,451.7z M159.6,443.4c1.2,0,2.4-0.4,3.6-1.2c1.2-0.8,2.3-2,3.3-3.5
				c1-1.5,2-3.2,2.9-5.2c0.9-2,1.7-4.1,2.3-6.4l1.7-13.8c-0.8-0.1-1.5-0.1-2.2-0.1c-2.5,0-4.8,0.6-6.9,1.7c-2.1,1.1-3.9,2.7-5.5,4.6
				c-1.5,1.9-2.8,4.1-3.6,6.7c-0.9,2.5-1.3,5.2-1.3,8c0,3.2,0.5,5.6,1.5,7C156.4,442.6,157.8,443.4,159.6,443.4z"/>
			<path class="st57" d="M190,451.7l8.1-66.2h10.7l-3.6,29.5c2.1-3,4.5-5.4,7.2-7.1c2.6-1.8,5.4-2.6,8.4-2.6c1.9,0,3.6,0.3,5.2,1
				c1.6,0.7,2.9,1.7,4,3.1c1.1,1.4,1.9,3.2,2.5,5.3c0.6,2.1,0.9,4.7,0.9,7.5c0,2.6-0.3,5.1-0.8,7.6c-0.5,2.5-1.3,4.9-2.3,7.1
				c-1,2.2-2.1,4.3-3.5,6.2c-1.4,1.9-2.9,3.5-4.5,4.9c-1.7,1.4-3.4,2.4-5.3,3.2s-3.8,1.2-5.9,1.2c-2.3,0-4.4-0.5-6.3-1.4
				c-1.8-0.9-3.4-2.2-4.6-3.8l-0.4,1.5c-0.2,1.1-0.6,1.8-1.2,2.3c-0.6,0.5-1.5,0.7-2.7,0.7H190z M216.5,413.9
				c-1.2,0-2.4,0.4-3.7,1.2c-1.2,0.8-2.5,2-3.6,3.4c-1.2,1.5-2.3,3.2-3.3,5.1c-1,2-1.8,4.1-2.6,6.3L202,441c1,1.1,2.2,1.9,3.5,2.3
				c1.3,0.4,2.6,0.7,3.9,0.7c2,0,3.7-0.6,5.3-1.8c1.6-1.2,3-2.8,4.1-4.8c1.1-2,2-4.2,2.7-6.6c0.6-2.5,0.9-4.9,0.9-7.4
				c0-3.2-0.5-5.6-1.6-7.2C219.8,414.7,218.4,413.9,216.5,413.9z"/>
			<path class="st57" d="M276.2,416.6c0,2.1-0.4,3.9-1.2,5.6c-0.8,1.7-2.3,3.2-4.4,4.5c-2.1,1.3-5,2.5-8.6,3.5
				c-3.6,1-8.2,1.7-13.8,2.3v0.6c0,7.2,3,10.8,9.1,10.8c1.3,0,2.5-0.1,3.5-0.4s1.9-0.6,2.7-0.9c0.8-0.4,1.4-0.8,2.1-1.2
				c0.6-0.4,1.2-0.9,1.7-1.2c0.5-0.4,1-0.7,1.5-0.9c0.5-0.2,1.1-0.4,1.7-0.4c0.4,0,0.7,0.1,1.1,0.2c0.4,0.2,0.7,0.4,0.9,0.7l2.8,3.4
				c-1.6,1.6-3.1,2.9-4.6,4.1c-1.5,1.2-3.1,2.1-4.6,2.9c-1.6,0.7-3.2,1.3-5,1.6c-1.8,0.4-3.7,0.5-5.7,0.5c-2.7,0-5.1-0.5-7.3-1.4
				c-2.2-0.9-4-2.2-5.6-3.8c-1.5-1.6-2.7-3.6-3.6-6c-0.8-2.3-1.3-4.9-1.3-7.8c0-2.4,0.3-4.8,0.8-7.1c0.5-2.3,1.3-4.5,2.3-6.6
				c1-2.1,2.2-4,3.6-5.7c1.4-1.8,3-3.3,4.8-4.5c1.8-1.3,3.8-2.3,5.9-3c2.2-0.7,4.5-1.1,6.9-1.1c2.4,0,4.5,0.3,6.3,1s3.3,1.6,4.5,2.6
				c1.2,1.1,2.1,2.3,2.7,3.6C275.9,414,276.2,415.3,276.2,416.6z M261.2,413c-1.5,0-2.9,0.3-4.1,0.9c-1.3,0.6-2.4,1.5-3.5,2.6
				s-1.9,2.4-2.7,3.9c-0.8,1.5-1.4,3.2-1.8,5c3.7-0.5,6.6-1,8.9-1.6c2.2-0.6,4-1.2,5.2-2c1.2-0.7,2-1.5,2.4-2.3
				c0.4-0.8,0.6-1.7,0.6-2.6c0-0.4-0.1-0.9-0.3-1.4c-0.2-0.5-0.5-0.9-0.9-1.3s-0.9-0.7-1.6-0.9C262.9,413.1,262.1,413,261.2,413z"/>
			<path class="st57" d="M318.4,416.6c0,2.1-0.4,3.9-1.2,5.6c-0.8,1.7-2.3,3.2-4.4,4.5c-2.1,1.3-5,2.5-8.6,3.5
				c-3.6,1-8.2,1.7-13.8,2.3v0.6c0,7.2,3,10.8,9.1,10.8c1.3,0,2.5-0.1,3.5-0.4s1.9-0.6,2.7-0.9c0.8-0.4,1.4-0.8,2.1-1.2
				c0.6-0.4,1.2-0.9,1.7-1.2c0.5-0.4,1-0.7,1.5-0.9c0.5-0.2,1.1-0.4,1.7-0.4c0.4,0,0.7,0.1,1.1,0.2c0.4,0.2,0.7,0.4,0.9,0.7l2.8,3.4
				c-1.6,1.6-3.1,2.9-4.6,4.1c-1.5,1.2-3.1,2.1-4.6,2.9c-1.6,0.7-3.2,1.3-5,1.6c-1.8,0.4-3.7,0.5-5.7,0.5c-2.7,0-5.1-0.5-7.3-1.4
				c-2.2-0.9-4-2.2-5.6-3.8c-1.5-1.6-2.7-3.6-3.6-6c-0.8-2.3-1.3-4.9-1.3-7.8c0-2.4,0.3-4.8,0.8-7.1c0.5-2.3,1.3-4.5,2.3-6.6
				c1-2.1,2.2-4,3.6-5.7c1.4-1.8,3-3.3,4.8-4.5c1.8-1.3,3.8-2.3,5.9-3c2.2-0.7,4.5-1.1,6.9-1.1c2.4,0,4.5,0.3,6.3,1s3.3,1.6,4.5,2.6
				c1.2,1.1,2.1,2.3,2.7,3.6C318.1,414,318.4,415.3,318.4,416.6z M303.3,413c-1.5,0-2.9,0.3-4.1,0.9c-1.3,0.6-2.4,1.5-3.5,2.6
				c-1,1.1-1.9,2.4-2.7,3.9c-0.8,1.5-1.4,3.2-1.8,5c3.7-0.5,6.6-1,8.9-1.6c2.2-0.6,4-1.2,5.2-2c1.2-0.7,2-1.5,2.4-2.3
				c0.4-0.8,0.6-1.7,0.6-2.6c0-0.4-0.1-0.9-0.3-1.4c-0.2-0.5-0.5-0.9-0.9-1.3c-0.4-0.4-0.9-0.7-1.6-0.9
				C305,413.1,304.3,413,303.3,413z"/>
			<path class="st57" d="M321.9,451.7l5.6-45.8h5.6c1.1,0,1.9,0.2,2.6,0.7c0.7,0.5,1,1.2,1,2.3c0,0.2,0,0.6,0,1.1s-0.1,1.3-0.1,2.4
				c0,1.1-0.1,2.6-0.2,4.6c1.9-3.6,3.9-6.4,6.2-8.3c2.2-2,4.5-2.9,7-2.9c1.2,0,2.4,0.3,3.7,0.8l-2,10.5c-1.5-0.6-2.9-0.9-4.2-0.9
				c-2.6,0-5,1.3-7,3.8c-2,2.5-3.6,6.5-4.9,11.9l-2.4,20H321.9z"/>
			<path class="st57" d="M354.9,451.7l8-66.2h10.8l-8,66.2H354.9z"/>
			<path class="st57" d="M393.9,406l-5.5,45.7h-10.9L383,406H393.9z M396.7,392.6c0,1-0.2,1.8-0.6,2.7c-0.4,0.8-0.9,1.6-1.6,2.2
				c-0.6,0.6-1.4,1.1-2.2,1.5c-0.8,0.4-1.7,0.6-2.6,0.6c-0.9,0-1.7-0.2-2.5-0.6c-0.8-0.4-1.5-0.9-2.2-1.5c-0.6-0.6-1.1-1.4-1.5-2.2
				c-0.4-0.8-0.6-1.7-0.6-2.7c0-0.9,0.2-1.9,0.6-2.7s0.9-1.6,1.5-2.3s1.3-1.1,2.2-1.5c0.8-0.4,1.7-0.6,2.5-0.6
				c0.9,0,1.8,0.2,2.6,0.6c0.8,0.4,1.6,0.9,2.2,1.5c0.6,0.6,1.2,1.4,1.5,2.2S396.7,391.7,396.7,392.6z"/>
			<path class="st57" d="M435.4,451.7h-5.8c-1.3,0-2.3-0.3-2.8-0.9c-0.5-0.6-0.8-1.4-0.8-2.4l0.4-6.2c-2,3.1-4.3,5.6-6.8,7.5
				c-2.5,1.8-5.3,2.7-8.3,2.7c-1.7,0-3.3-0.3-4.8-1c-1.5-0.7-2.8-1.7-3.9-3.1c-1.1-1.4-2-3-2.6-5.1c-0.6-2-1-4.4-1-7.1
				c0-2.7,0.3-5.4,1-8c0.7-2.6,1.7-5,2.9-7.3c1.3-2.3,2.8-4.4,4.6-6.3c1.8-1.9,3.8-3.5,6-4.9c2.2-1.4,4.6-2.4,7.2-3.2
				c2.6-0.8,5.3-1.1,8.1-1.1c2,0,4.1,0.2,6.2,0.4c2.1,0.3,4.1,0.8,6.1,1.6L435.4,451.7z M415.6,443.4c1.2,0,2.4-0.4,3.6-1.2
				c1.2-0.8,2.3-2,3.3-3.5c1-1.5,2-3.2,2.9-5.2c0.9-2,1.7-4.1,2.3-6.4l1.7-13.8c-0.8-0.1-1.5-0.1-2.2-0.1c-2.5,0-4.8,0.6-6.9,1.7
				c-2.1,1.1-3.9,2.7-5.5,4.6c-1.5,1.9-2.8,4.1-3.6,6.7c-0.9,2.5-1.3,5.2-1.3,8c0,3.2,0.5,5.6,1.5,7
				C412.4,442.6,413.8,443.4,415.6,443.4z"/>
			<path class="st57" d="M445.6,451.7l5.5-45.8h5.6c1.2,0,2.1,0.3,2.7,0.8c0.6,0.6,1,1.5,1,2.7l-0.3,5.9c2.3-3.4,4.9-6,7.7-7.6
				c2.8-1.7,5.7-2.5,8.7-2.5c1.7,0,3.2,0.3,4.6,0.9c1.4,0.6,2.6,1.5,3.5,2.7c1,1.2,1.7,2.6,2.3,4.3c0.5,1.7,0.8,3.7,0.8,5.9
				c0,0.6,0,1.1-0.1,1.7c0,0.6-0.1,1.2-0.2,1.8l-3.4,29.1h-11c0.6-5,1.1-9.3,1.5-12.8c0.4-3.5,0.8-6.4,1-8.7
				c0.3-2.3,0.5-4.1,0.6-5.5c0.2-1.3,0.3-2.3,0.3-3c0.1-0.7,0.1-1.1,0.1-1.4c0-0.2,0-0.4,0-0.6c0-2-0.4-3.4-1.1-4.3
				c-0.7-0.9-1.8-1.3-3.3-1.3c-1.2,0-2.5,0.4-3.8,1.1c-1.3,0.7-2.6,1.7-3.7,3c-1.2,1.3-2.3,2.9-3.3,4.7s-1.8,3.9-2.4,6.1l-2.5,22.5
				H445.6z"/>
			<path class="st57" d="M524,414.6c-0.3,0.5-0.6,0.8-0.9,1c-0.3,0.2-0.7,0.3-1.2,0.3c-0.5,0-1-0.2-1.6-0.4c-0.5-0.3-1.2-0.6-1.8-1
				c-0.7-0.4-1.5-0.7-2.4-1c-0.9-0.3-2-0.4-3.3-0.4c-2.3,0-4.1,0.5-5.4,1.6c-1.2,1-1.9,2.4-1.9,3.9c0,0.9,0.3,1.7,0.8,2.3
				c0.5,0.6,1.2,1.2,2,1.7c0.8,0.5,1.8,0.9,2.9,1.3c1.1,0.4,2.2,0.8,3.3,1.3c1.1,0.5,2.2,1,3.3,1.6c1.1,0.6,2,1.3,2.9,2.1
				c0.8,0.8,1.5,1.8,2,3c0.5,1.2,0.8,2.6,0.8,4.2c0,2.2-0.4,4.3-1.3,6.3c-0.9,2-2.1,3.7-3.8,5.2c-1.6,1.5-3.6,2.7-5.9,3.6
				c-2.3,0.9-4.9,1.3-7.8,1.3c-1.5,0-2.9-0.1-4.2-0.4c-1.4-0.3-2.6-0.7-3.8-1.2c-1.2-0.5-2.3-1.1-3.2-1.8c-1-0.7-1.8-1.4-2.5-2.2
				l2.7-4.2c0.3-0.5,0.7-0.9,1.2-1.2c0.5-0.3,1-0.4,1.6-0.4s1.2,0.2,1.7,0.6c0.5,0.4,1.1,0.8,1.8,1.3c0.7,0.5,1.5,0.9,2.5,1.3
				s2.2,0.6,3.7,0.6c1.2,0,2.3-0.2,3.2-0.5c0.9-0.3,1.7-0.8,2.4-1.3c0.6-0.6,1.1-1.2,1.4-2c0.3-0.7,0.5-1.5,0.5-2.4
				c0-1-0.3-1.8-0.8-2.5c-0.5-0.7-1.2-1.2-2-1.7c-0.8-0.5-1.8-0.9-2.9-1.3c-1.1-0.4-2.2-0.8-3.3-1.2c-1.1-0.4-2.2-0.9-3.3-1.4
				c-1.1-0.5-2-1.2-2.9-2c-0.8-0.8-1.5-1.8-2-3c-0.5-1.2-0.8-2.6-0.8-4.3c0-2,0.4-4,1.2-5.9c0.8-1.9,1.9-3.6,3.4-5.1
				s3.3-2.6,5.5-3.5c2.2-0.9,4.7-1.3,7.5-1.3c2.9,0,5.5,0.5,7.7,1.5c2.2,1,4.1,2.3,5.7,3.8L524,414.6z"/>
		</g>
		<g>
			<g>
				<path class="st62" d="M340.9,648.2c-9.4,3.1-19.1,4.7-28.8,6.3c-26.1,4.2-52.3,5.5-78.7,5.2c-2.4,0-3-0.4-2.4-3
					c2.4-10.4,4.6-20.9,6.6-31.4c0.5-2.4,1.5-2.8,3.8-2.9c30.8-0.2,61.5-2.4,91.6-9.4c2-0.5,3.9-0.8,5.9-1.3c1.3,1.3,1,3,1,4.5
					c0,8.8,0,17.5,0,26.3C339.9,644.5,339.9,646.4,340.9,648.2z"/>
				<path class="st62" d="M335.1,548.7c2.5-0.5,5.1-0.9,7.6-1.4c0.9,0.8,1,1.9,1,2.9c0.1,9.5,0.2,19,0,28.4c0,0.4-0.1,0.8-0.2,1.2
					c-0.7,1.9-2.5,2.3-4.1,2.7c-3.5,0.5-6.9,1.9-10.6,1.7c-9.1,0.8-18.1,2.5-27.2,3c-10.2,0.6-20.3,1-30.5,0.8
					c-2.3-0.1-3.1-0.6-2.4-3.1c0.7-2.6,1.6-5.3,1.5-8.1c-0.5-2.5,0.5-4.8,0.9-7.2c0.8-3.9,1.6-7.9,2.5-11.8c0.9-3.7,1.6-4.3,5.5-4.3
					c12.3,0,24.5-1,36.7-2.2c1.6-0.4,3.2-0.2,4.8-0.7c3.1-0.3,6.1-1,9.2-1.5C331.4,548.8,333.3,548.7,335.1,548.7z"/>
				<path class="st62" d="M327.4,535.9c-8.6-1.4-17.1-2.8-25.7-4.1c-3.4-0.5-6.7-0.8-10.1-1.2c-1.6-0.2-2.4-0.5-1.9-2.5
					c2-8.8,3.8-17.6,5.7-26.4c0.2-1,0.2-2.1,1.8-2c9.9,0.9,19.9,1.3,29.6,3.5c0.9,1,1.1,2.3,1,3.6c-0.4,9.3,0,18.6-0.1,27.9
					C327.8,535.2,327.7,535.6,327.4,535.9z"/>
				<path class="st62" d="M316,551.9c-2.4,1.1-5,0.9-7.4,1.1c-10,0.7-20,1.8-30.1,1.3c-2.8-0.1-3.5,1.1-4.1,3.4
					c-1.5,6.3-2.2,12.8-4.4,19c-3.3-0.2-6.6-0.4-9.8-0.4c-1.7,0-2-0.6-1.6-2.1c2.4-11.1,4.7-22.1,7.1-33.2c0.3-1.3,0.8-1.8,2.2-1.7
					c15.9,1.1,31.9,2.2,47.6,5.4C316.7,547,316.3,549.4,316,551.9z"/>
				<path class="st62" d="M374.6,564.1c6.6,4.1,12.3,9,12,17.8c0.1,3.9-1.6,7-4.2,9.8c-0.9,1.4-2.4,2.2-3.6,3.3
					c-1,0.8-2,1.6-3.1,2.2c-0.9,0.4-1.8,0.4-2.3-0.7c-0.8-2.9-0.4-5.9-0.4-8.9c0-6.6-0.1-13.1,0.1-19.7
					C373.2,566.5,372.9,564.9,374.6,564.1z"/>
				<path class="st62" d="M381.7,591.4c2.5-2.7,4.2-5.9,4.9-9.5c0,12.2,0.1,24.3,0,36.5c0,3-1.2,5.8-3.3,8.1c-2.1,0.5-1.9-1.3-2-2.4
					c-0.3-2.3-0.1-4.7-0.1-7c0-7.1,0-14.2,0-21.3C381.2,594.3,381.7,592.9,381.7,591.4z"/>
				<path class="st62" d="M374.6,564.1c-1.4,2.5-0.5,5.2-0.5,7.7c-0.2,8.5-0.1,16.9-0.1,25.4c0.2,0.7-0.2,1.1-0.6,1.5
					c-0.8,0.4-1.5,1-2.4,0.3c-0.7-0.5-1.4-0.9-2.1-1.4c-0.7-0.9-0.9-1.9-0.9-3c-0.1-7.8-0.1-15.6,0.1-23.4c0-0.7,0.2-1.5,0.5-2.1
					c0.8-1.6,2-3,2.9-4.6c0.5-0.6,0.8-1.5,1.8-1.2C373.7,563.6,374.2,563.9,374.6,564.1z"/>
				<path class="st62" d="M369.5,568.5c-1.2,3-0.5,6.1-0.6,9.1c-0.2,6.7-0.1,13.4-0.1,20.1c-1.9-0.9-3.9-1.9-5.8-2.8
					c-0.6-1-0.9-2.1-0.9-3.3c0-5.7-0.2-11.3,0.1-17c0.2-1.7,1.4-2.8,2.7-3.7c0.8-0.5,1.6-0.9,2.2-1.5c0.6-0.5,1.1-1,1.9-1
					C369.3,568.4,369.4,568.4,369.5,568.5z"/>
				<path class="st62" d="M365.1,515.5c5.3,3.1,9.5,7,8.3,14c-0.4,1.7-1,3.3-2.2,4.6c-0.7,0.9-1.4,1.6-2.3,2.2
					c-0.8,0.5-1.6,1.2-2.7,1.3c-0.4,0-0.7-0.1-1.1-0.3c-1-0.9-1-2-1.1-3.2c-0.1-5.2-0.1-10.5,0-15.7
					C364.1,517.4,364.2,516.3,365.1,515.5z"/>
				<path class="st62" d="M352.3,544.3c0.5-0.3,0.9-0.6,0.7-1.3c1-0.8,1.9-0.3,2.8,0.2c0.9,0.7,1.2,1.8,1.2,2.8
					c0,9.8,0.3,19.7-0.2,29.5c-0.1,0.6-0.4,1.1-0.9,1.5c-1.5,0.4-2.9,2.5-4.6,0.4c0-9.6,0-19.3,0-28.9
					C351.4,547,351.2,545.5,352.3,544.3z"/>
				<path class="st62" d="M349.1,541.6c-1.4-0.1-2.7-0.5-3.8-1.2c-0.8-0.9-1-2.1-1-3.3c-0.1-8.7-0.1-17.3,0.1-26
					c0-1.4-0.5-3.8,2.4-3.4c1.4,0,2.7,0.5,3.9,1.2c-1.1,9.1-0.2,18.3-0.5,27.5C350.1,538.2,350.5,540.1,349.1,541.6z"/>
				<path class="st62" d="M371,599.1c0.8-0.2,1.6-0.5,2.3-0.7c0.9,0.8,1.1,1.9,1.1,2.9c0,9,0.3,18-0.1,27c-0.1,2.1,0.4,4,0.5,6
					c-1.1,1.1-2.5,1.9-4,2.5c-1.8-0.3-1.6-1.8-1.6-3c-0.1-10.2-0.1-20.4,0-30.5c0-1.1,0.3-2.1,0.9-3
					C370.4,599.8,370.7,599.4,371,599.1z"/>
				<path class="st62" d="M361.9,604.1c0.7-0.7,1.6-1,2.6-1.2c1.3,1.3,1,3,1,4.5c0,8.3,0,16.5,0,24.8c0,2.3,0.1,4.7,0.4,7
					c-1.3,1-2.9,1.6-4.5,2.1c-1.8-2.4-1.2-5.2-1.2-7.9c0.1-8.5,0.1-17.1-0.1-25.6C360,606.2,360.4,604.9,361.9,604.1z"/>
				<path class="st62" d="M327.4,535.9c-1.3-3.1-0.5-6.4-0.6-9.6c-0.2-7.7-0.1-15.4,0-23.1c1.3,0.1,2.6-0.1,3.8,0.7
					c1,1.1,1,2.5,1,3.9c0,8.3,0,16.6,0,24.9c0,1.4,0.1,2.8-1,3.9C329.5,536.6,328.4,536.6,327.4,535.9z"/>
				<path class="st62" d="M344,610.5c1.2-0.7,2.4-1.2,3.8-1.2c1.3,1.3,1,2.9,1,4.5c0,8.4,0,16.9,0,25.3c0,2.2,0.1,4.4,0.5,6.6
					c-1.2,0.7-2.5,1.1-4,1.2c-2.2-0.4-1.6-2.3-1.6-3.5c-0.2-7.7-0.1-15.4-0.1-23.1C343.7,617,343.3,613.7,344,610.5z"/>
				<path class="st62" d="M355,643.8c-1.1,0.8-2.4,1.2-3.8,1.3c-1.9-0.1-1.7-1.7-1.7-2.8c-0.2-10.4-0.1-20.8,0-31.1
					c0-1,0.4-1.9,0.9-2.7c1-0.6,2.1-1,3.3-1.1c1.3,1.3,1,2.9,1,4.5c0,8.2,0,16.4,0,24.7C354.6,638.9,354.7,641.4,355,643.8z"/>
				<path class="st62" d="M374.8,634.2c-1.9-1.1-1.5-3.2-1.4-4.7c0.5-7.4-0.1-14.8,0.2-22.1c0.1-3-0.2-6-0.3-9
					c0.2-0.4,0.5-0.8,0.7-1.1c0.6-0.2,1.3-0.5,1.9-0.7c1.7-0.1,1.9,1.1,1.9,2.3c-0.5,6.5,0.3,13-0.2,19.5c-0.2,3.2,0.4,6.5,0.2,9.8
					c-0.1,1.5,0.1,3-0.5,4.4C376.6,633.3,375.8,633.9,374.8,634.2z"/>
				<path class="st62" d="M365.8,639.3c-1.9-0.3-1.4-1.9-1.4-3c0-11.1,0-22.2,0-33.3c1-0.5,2.1-1,3.1-1.5c1,0.9,1,2.1,1,3.2
					c0.1,10.6,0,21.2,0,31.7c0,0.5-0.2,1-0.3,1.6C367.7,638.7,366.8,639.1,365.8,639.3z"/>
				<path class="st62" d="M344,610.5c0.6,1,0.7,2.2,0.7,3.4c0,10.1,0,20.3,0,30.4c0,0.9-0.3,1.9,0.7,2.6c-0.7,0.7-1.5,0.6-2.4,0.7
					c-1.4,0.6-1.9-0.3-2.3-1.4c-0.3-1-0.3-2.1-0.3-3.2c0-9.1,0-18.2,0-27.3c0-1.6-0.1-3.2,1-4.5C342.2,610.5,343.1,610.4,344,610.5z
					"/>
				<path class="st62" d="M358.9,512.2c1.4,0.3,2.7,0.9,3.8,1.9c0.4,6.3,0.1,12.6,0.1,19c0,1.8,0,3.6,0.4,5.3
					c0.3,1.1-0.3,1.8-1.1,2.3c-0.6,0.4-1.3,0.7-2.1,0.8c-0.6,0.1-1.2,0-1.7-0.3c-1.3-1-1.3-2.4-1.3-3.7c-0.1-7.3-0.1-14.6,0-21.9
					C357.1,514.4,356.7,512.5,358.9,512.2z"/>
				<path class="st62" d="M342.1,539.6c-0.6-0.2-1.3-0.4-1.9-0.6c-1.8-0.4-2.2-1.8-2.2-3.4c0.1-9-0.2-17.9,0-26.9
					c0-1.1-0.2-2.7,1.6-2.9c1.8,0.1,3.5,0.5,5,1.3c-1.3,1.7-1.6,3.6-1.6,5.6c0,7.4,0,14.8,0,22.2
					C343.1,536.6,343.3,538.3,342.1,539.6z"/>
				<path class="st62" d="M377.3,632.5c-1.4-1.8-0.5-4-0.5-5.8c0.1-5,0-10.1,0.1-15.2c0.1-4.4-0.2-8.9,0.2-13.3
					c0.1-0.8-0.5-1.4-1.2-1.7c0.8-0.6,1.7-1.3,2.5-1.9c2.3,0.2,2.2,1.9,2.1,3.5c-0.1,7.1-0.4,14.1,0.1,21.2
					c0.2,3.5-0.7,6.9-0.2,10.4C379.7,630.9,378.6,631.8,377.3,632.5z"/>
				<path class="st62" d="M354.8,543.5c-0.6-0.2-1.2-0.4-1.7-0.5c-0.5-0.2-1-0.4-1.5-0.5c-0.9-1.3-1-2.8-1-4.2c0-7.8,0-15.6,0-23.4
					c0-1.9-0.2-3.9,1.7-5.2c1.4,0.2,2.6,0.6,3.8,1.4c-0.4,10.2-0.7,20.4,0.2,30.6C356.7,543,355.6,543.2,354.8,543.5z"/>
				<path class="st62" d="M330.6,536.6c0-10.9,0-21.8,0-32.7c1.1,0,2.2-0.1,3.2,0.6c1,1.2,1,2.7,1,4.2c0,7.9,0,15.8,0,23.8
					c0,1.7,0.3,3.7-1.7,4.8C332.3,537.1,331.3,537.3,330.6,536.6z"/>
				<path class="st62" d="M342.1,539.6c0-9.7,0-19.4,0-29.1c0-1.9,0.1-3.5,2.6-3.3c0.7,0,1.5,0,2,0.6c-1.9,0.3-1.4,1.8-1.4,3
					c0,9.9,0,19.7,0,29.6C344.1,540.5,343.1,540,342.1,539.6z"/>
				<path class="st62" d="M356.2,542.3c-1.5-0.2-1.4-1.4-1.4-2.4c0-8.8,0-17.6,0-26.4c0-1-0.3-2.2,1.2-2.5c1,0.1,2,0.5,2.8,1.2
					c-1.1,0.7-0.8,1.9-0.8,2.9c0,7.7,0,15.4,0,23.2c0,1.1-0.5,2.5,1.3,2.8c0.2,1.1-0.7,1.3-1.4,1.7
					C357.3,542.9,356.7,542.9,356.2,542.3z"/>
				<path class="st62" d="M380.5,629.7c-2.5-2.7-0.3-5.8-0.7-8.7c-0.9-6.7,0.6-13.5-0.5-20.2c-0.3-2,1.9-4.4-0.8-6.2
					c1.1-1.1,2.2-2.1,3.2-3.2c1,1,0.6,2.2,0.6,3.3c0,9.5,0,19,0.1,28.5c0,1.1-0.7,2.6,1.1,3.2C382.7,627.8,381.7,628.9,380.5,629.7z
					"/>
				<path class="st62" d="M355,643.8c-2.1-0.4-1.4-2.1-1.4-3.3c0-11,0-22.1,0-33.1c1-0.7,2-1,3.2-1.2c0.6,2,0.3,4,0.3,6
					c0.1,9.3,0,18.6,0,27.8c0,1.1,0,2.1-0.3,3.1C356.4,643.7,355.7,643.8,355,643.8z"/>
				<path class="st62" d="M368.4,638c-1.2-1-0.7-2.4-0.7-3.6c-0.1-11,0-22-0.1-33c0.8-0.4,1.7-0.9,2.5-1.3c0,11.1,0,22.2,0.1,33.3
					c0,1.1-0.4,2.4,0.6,3.3C370.1,637.4,369.3,637.8,368.4,638z"/>
				<path class="st62" d="M341.5,611.1c0,11.1,0,22.1,0,33.2c0,1.2-0.6,2.9,1.5,3.3c-0.6,0.6-1.3,0.6-2.1,0.6c-2.4,0.1-2-1.7-2-3.1
					c0-11.1,0-22.2,0-33.3C339.7,611.2,340.5,611.1,341.5,611.1z"/>
				<path class="st62" d="M350.3,608.4c0,11,0,22.1,0.1,33.1c0,1.2-0.5,2.6,0.8,3.5c-0.5,0.6-1.2,0.6-1.9,0.6
					c-2.1-0.4-1.4-2.1-1.4-3.3c0-11,0-22.1,0-33.1C348.6,608.6,349.4,608.5,350.3,608.4z"/>
				<path class="st62" d="M361.9,604.1c-2,2.7-0.7,5.8-0.9,8.6c-0.3,6.2,0.3,12.4-0.2,18.6c-0.2,3.3,0.3,6.6,0.5,9.9
					c-0.3,0.5-0.8,0.5-1.2,0.5c-1.8,0.7-2-0.7-2.2-1.8c-0.3-1.7-0.6-3.4-0.5-5c0.3-8.8,0.6-17.5-0.1-26.3c-0.1-1.3,0.2-2.5,1.5-3.3
					C359.6,604.7,360.7,604.3,361.9,604.1z"/>
				<path class="st62" d="M358.7,605.4c-0.9,1.5-0.7,3-0.5,4.6c0.1,0.5,0.4,1,0.4,1.5c-0.4,7.4,0.3,14.8-0.2,22.3
					c-0.2,2.6-1,5.8,1.7,8c-0.9,0.8-2,1.1-3.2,1.3c-0.9-0.7-0.7-1.7-0.7-2.6c0-10.4,0-20.8,0-31.2c0-1.1,0-2.1,0.6-3.1
					C357.3,605.8,357.9,605.4,358.7,605.4z"/>
				<path class="st62" d="M339.6,505.9c-0.8,0.6-0.7,1.5-0.7,2.3c0,9.3,0,18.5,0,27.8c0,1.3,0.3,2.3,1.3,3c-1.4,0-2.6-0.5-3.9-1
					c-1-1.4-1-3-1-4.6c0-7.9,0-15.9,0-23.8c0-1.6-0.2-3.2,1.1-4.5C337.5,505.2,338.7,505.2,339.6,505.9z"/>
				<path class="st62" d="M342.7,580.6c0-11.1,0-22.2,0-33.3c0.7-0.7,1.6-0.6,2.5-0.7c0.7,0.6,1,1.4,0.9,2.3
					c-0.1,10.1,0.4,20.2-0.2,30.3c-0.3,0.8-0.8,1.4-1.6,1.7C343.8,581.1,343.2,581,342.7,580.6z"/>
				<path class="st62" d="M352.4,509.6c-0.6,1.8-0.7,3.7-0.7,5.6c0,9.1,0,18.2,0,27.3c-0.9-0.1-1.8-0.2-2.5-0.8c0-9.8,0-19.5,0-29.3
					c0-1.3-0.6-2.9,1.5-3.3C351.3,509,351.9,509,352.4,509.6z"/>
				<path class="st62" d="M336.4,505.1c0,11-0.1,21.9-0.1,32.9c-1-0.3-2.3,0.2-3.2-0.7c0.7-1.2,0.7-2.6,0.7-4c0-9.6,0-19.2,0-28.8
					C334.7,504.6,335.6,504.5,336.4,505.1z"/>
				<path class="st62" d="M351.7,578c1.3-0.4,2.5-0.8,3.8-1.2c1.2,4.1,1,8.3,0.7,12.5c-0.1,0.9-0.5,1.8-1.4,2.4
					c-1.9-0.7-3.8-1.4-5.7-2.1c-1.7-3-0.7-6.3-0.8-9.4c0-0.4,0.1-0.7,0.3-1c0.1-0.3,0.4-0.6,0.7-0.8
					C350,577.9,350.8,577.6,351.7,578z"/>
				<path class="st62" d="M363.2,539.1c-1.1-0.1-1.3-0.9-1.3-1.8c0-7.2,0-14.4,0-21.5c0-0.7,0.2-1.2,0.8-1.6c1,0.2,1.7,0.7,2.4,1.4
					c0,6.3,0,12.6,0,18.9c0,1-0.5,2.4,1.2,2.8c0.3,1-0.6,1.3-1.1,1.8C364.6,539.3,363.9,539.8,363.2,539.1z"/>
				<path class="st62" d="M363.1,573.5c0,7.1,0,14.3-0.1,21.4c-1.2-0.5-2.5-1.1-3.7-1.6c-1-1.1-0.9-2.5-0.9-3.9c0-4.3,0-8.7-0.1-13
					c0.1-1.2,0.9-1.9,1.8-2.4c0.6-0.3,1.1-0.6,1.8-0.8C362.3,573.1,362.8,573.1,363.1,573.5z"/>
				<path class="st62" d="M358.7,575.5c1.3,3,0.5,6.2,0.6,9.3c0.1,2.8,0,5.6,0,8.5c-1.5-0.5-3-1.1-4.5-1.6c1.4-4.5,0.4-9.1,0.4-13.6
					c0-0.4,0.2-0.8,0.3-1.2c0.2-0.2,0.4-0.4,0.7-0.6c0.5-0.6,1-1,1.8-1C358.2,575.1,358.5,575.3,358.7,575.5z"/>
				<path class="st62" d="M345.3,579.9c0-11.1,0-22.2,0-33.3c0.5-0.5,1.2-0.5,1.9-0.5c0.9,0.8,1,1.9,1,2.9c0,9.5,0,19,0,28.5
					c0,0.5-0.1,1-0.3,1.6C347.3,580.2,346.5,580.7,345.3,579.9z"/>
				<path class="st62" d="M347.2,579.3c0-11.1,0-22.2,0-33.3c0.5-0.6,1.2-0.6,1.9-0.6c1.1,1,0.9,2.3,0.9,3.6c0,8.7,0,17.4,0,26.1
					c0,1.3,0,2.6-0.9,3.6c0,0.2,0,0.3-0.1,0.5C348.5,579.8,347.9,579.8,347.2,579.3z"/>
				<path class="st62" d="M351.7,578c-0.6,0.2-1.3,0.4-1.9,0.6c0-9.9,0-19.9,0-29.8c0-1.4-0.4-3,1.3-4c0.3-0.4,0.8-0.6,1.3-0.5
					c0,9.9,0,19.8,0,29.7C352.3,575.3,352.5,576.7,351.7,578z"/>
				<path class="st62" d="M370.7,534c0.9-1.5,1.8-3,2.6-4.4c0.2,11.3,0.4,22.6-0.1,33.8c-0.4,0.4-0.8,0.9-1.2,1.3
					c-1.3-0.5-1.6-1.7-1.6-2.9C370.6,552.5,370.2,543.2,370.7,534z"/>
				<path class="st62" d="M347.2,579.3c0.6,0,1.3-0.1,1.9-0.1c0,3.4,0,6.9,0,10.3c-1.6-0.1-3.1-0.6-4.4-1.3
					c-1.9-2.1-2.1-5.2-0.6-7.6c0.4-0.2,0.9-0.5,1.3-0.7C346,579.9,346.7,580,347.2,579.3z"/>
				<path class="st62" d="M351,544.8c-0.7,1.3-0.6,2.6-0.6,4c0,8.7,0,17.4,0,26.1c0,1.3,0.1,2.6-0.6,3.7c-0.2,0.1-0.4,0.1-0.6,0.1
					c0-11.1,0-22.2,0-33.3C349.6,544.9,350.3,544.8,351,544.8z"/>
				<path class="st62" d="M330,549.9c-3.1,0.6-6.2,1.5-9.5,1.4c-2.7-1.6-1.8-3.7-0.7-5.8c3.2,0.6,6.4,1.3,9.6,1.9
					C330.4,548,330.8,548.8,330,549.9z"/>
				<path class="st62" d="M344,580.6c0.1,2.5-0.5,5.1,0.6,7.6c-2.4-0.5-4.8-0.9-7-1.9c-1.2-1.9-1.2-3.5,1.3-4.4
					c1.3-0.4,2.6-0.9,3.8-1.3C343.2,580.6,343.6,580.6,344,580.6z"/>
				<path class="st62" d="M319.8,545.5c0.3,1.9-0.7,4,0.7,5.8c-1.4,1-3,0.4-4.5,0.6c-1.4-2.3-0.4-4.8-0.6-7.2
					C316.9,544.8,318.4,544.8,319.8,545.5z"/>
				<path class="st62" d="M338.9,581.9c-1.7,1.1-1.2,2.8-1.3,4.4c-3-0.7-6-1.3-8.9-2C332,583,335.5,582.5,338.9,581.9z"/>
				<path class="st62" d="M330,549.9c0.1-0.9-0.2-1.7-0.6-2.5c2,0.1,3.9,0.6,5.7,1.3C333.5,549.6,331.7,549.7,330,549.9z"/>
				<path class="st62" d="M370.7,534c1.1,0.9,0.7,2.2,0.7,3.3c0,7.8,0,15.6,0,23.5c0,1.4-0.1,2.8,0.7,4c-0.4,1.6-1.3,2.8-2.6,3.8
					c0,0,0-0.1,0-0.1c-0.7-0.6-0.9-1.4-0.9-2.3c0.1-10.1-0.3-20.2,0.2-30.2C369.5,535.2,370.1,534.6,370.7,534z"/>
				<path class="st62" d="M363.1,573.5c-0.4,0-0.8,0.1-1.2,0.1c0.5-9.6-0.1-19.2,0.3-28.8c0.1-1.5-0.3-2.9-0.4-4.4
					c0.4-0.4,0.9-0.8,1.3-1.2c0.6-0.2,1.3-0.4,1.9-0.7c1.8,0.3,1.6,1.8,1.6,3c0.1,8.9,0,17.8,0,26.7c0,1.1-0.2,2.1-0.9,3
					C364.9,571.9,364,572.7,363.1,573.5z"/>
				<path class="st62" d="M365.7,571.1c0-9.8,0-19.5-0.1-29.3c0-1.1,0.4-2.4-0.6-3.3c0.4-0.4,0.9-0.8,1.3-1.3c0.2,0,0.4,0,0.6,0
					c1.8,0.3,1.6,1.8,1.6,3c0.1,8.8,0,17.5,0,26.3c0,1.2-0.4,2.3-0.9,3.3C367.3,570.6,366.6,571,365.7,571.1z"/>
				<path class="st62" d="M367.6,569.8c0-9.8,0-19.5,0-29.3c0-1.1,0.4-2.4-0.6-3.3c0.4-0.8,1-1.2,1.9-1.3c1.1,0.9,0.7,2.2,0.7,3.3
					c0,9.8,0,19.5,0,29.3C368.9,568.8,368.3,569.3,367.6,569.8z"/>
				<path class="st62" d="M358,575.4c-0.6,0.2-1.3,0.5-1.9,0.7c0-9.8,0-19.7,0-29.5c0-1.1,0.6-2.7-1.3-3.1c0.5-0.4,0.9-0.8,1.4-1.2
					c0.6,0,1.2-0.1,1.8-0.1c2.1,3.6,1.2,7.6,1.2,11.4c-0.1,5.5,0.3,10.9,0,16.4C359,571.9,359.3,573.8,358,575.4z"/>
				<path class="st62" d="M358,575.4c0.2-8.3,0.6-16.6,0.4-24.9c-0.1-2.7,0.2-5.6-0.4-8.3c0.4-0.4,0.9-0.8,1.3-1.2
					c0.4,0,0.8,0,1.2,0c2.2,0.6,1.5,2.6,1.5,4c-0.1,8.3-0.1,16.6,0,24.9c0,1.6-0.1,3.2-1.5,4.3c-0.6,0.4-1.3,0.9-1.9,1.3
					C358.5,575.5,358.3,575.5,358,575.4z"/>
				<path class="st62" d="M360.6,574.2c0.4-0.9,0.6-1.7,0.6-2.7c0-9.5,0-19,0-28.5c0-0.7,0-1.5-0.7-2c0.4-0.2,0.8-0.4,1.3-0.6
					c1.8,1.6,1.1,3.6,1.1,5.5c0,5.9,0.3,11.8-0.1,17.7c-0.2,3.3,1.3,6.9-1,10C361.6,574,361.1,574.2,360.6,574.2z"/>
			</g>
			<g>
				<path class="st4" d="M340.9,648.2c-9.4,3.1-19.1,4.7-28.8,6.3c-26.1,4.2-52.3,5.5-78.7,5.2c-2.4,0-3-0.4-2.4-3
					c2.4-10.4,4.6-20.9,6.6-31.4c0.5-2.4,1.5-2.8,3.8-2.9c30.8-0.2,61.5-2.4,91.6-9.4c2-0.5,3.9-0.8,5.9-1.3c1.3,1.3,1,3,1,4.5
					c0,8.8,0,17.5,0,26.3C339.9,644.5,339.9,646.4,340.9,648.2z"/>
				<path class="st4" d="M335.1,548.7c2.5-0.5,5.1-0.9,7.6-1.4c0.9,0.8,1,1.9,1,2.9c0.1,9.5,0.2,19,0,28.4c0,0.4-0.1,0.8-0.2,1.2
					c-0.7,1.9-2.5,2.3-4.1,2.7c-3.5,0.5-6.9,1.9-10.6,1.7c-9.1,0.8-18.1,2.5-27.2,3c-10.2,0.6-20.3,1-30.5,0.8
					c-2.3-0.1-3.1-0.6-2.4-3.1c0.7-2.6,1.6-5.3,1.5-8.1c-0.5-2.5,0.5-4.8,0.9-7.2c0.8-3.9,1.6-7.9,2.5-11.8c0.9-3.7,1.6-4.3,5.5-4.3
					c12.3,0,24.5-1,36.7-2.2c1.6-0.4,3.2-0.2,4.8-0.7c3.1-0.3,6.1-1,9.2-1.5C331.4,548.8,333.3,548.7,335.1,548.7z"/>
				<path class="st5" d="M327.4,535.9c-8.6-1.4-17.1-2.8-25.7-4.1c-3.4-0.5-6.7-0.8-10.1-1.2c-1.6-0.2-2.4-0.5-1.9-2.5
					c2-8.8,3.8-17.6,5.7-26.4c0.2-1,0.2-2.1,1.8-2c9.9,0.9,19.9,1.3,29.6,3.5c0.9,1,1.1,2.3,1,3.6c-0.4,9.3,0,18.6-0.1,27.9
					C327.8,535.2,327.7,535.6,327.4,535.9z"/>
				<path class="st5" d="M316,551.9c-2.4,1.1-5,0.9-7.4,1.1c-10,0.7-20,1.8-30.1,1.3c-2.8-0.1-3.5,1.1-4.1,3.4
					c-1.5,6.3-2.2,12.8-4.4,19c-3.3-0.2-6.6-0.4-9.8-0.4c-1.7,0-2-0.6-1.6-2.1c2.4-11.1,4.7-22.1,7.1-33.2c0.3-1.3,0.8-1.8,2.2-1.7
					c15.9,1.1,31.9,2.2,47.6,5.4C316.7,547,316.3,549.4,316,551.9z"/>
				<path class="st6" d="M374.6,564.1c6.6,4.1,12.3,9,12,17.8c0.1,3.9-1.6,7-4.2,9.8c-0.9,1.4-2.4,2.2-3.6,3.3c-1,0.8-2,1.6-3.1,2.2
					c-0.9,0.4-1.8,0.4-2.3-0.7c-0.8-2.9-0.4-5.9-0.4-8.9c0-6.6-0.1-13.1,0.1-19.7C373.2,566.5,372.9,564.9,374.6,564.1z"/>
				<path class="st7" d="M381.7,591.4c2.5-2.7,4.2-5.9,4.9-9.5c0,12.2,0.1,24.3,0,36.5c0,3-1.2,5.8-3.3,8.1c-2.1,0.5-1.9-1.3-2-2.4
					c-0.3-2.3-0.1-4.7-0.1-7c0-7.1,0-14.2,0-21.3C381.2,594.3,381.7,592.9,381.7,591.4z"/>
				<path class="st8" d="M374.6,564.1c-1.4,2.5-0.5,5.2-0.5,7.7c-0.2,8.5-0.1,16.9-0.1,25.4c0.2,0.7-0.2,1.1-0.6,1.5
					c-0.8,0.4-1.5,1-2.4,0.3c-0.7-0.5-1.4-0.9-2.1-1.4c-0.7-0.9-0.9-1.9-0.9-3c-0.1-7.8-0.1-15.6,0.1-23.4c0-0.7,0.2-1.5,0.5-2.1
					c0.8-1.6,2-3,2.9-4.6c0.5-0.6,0.8-1.5,1.8-1.2C373.7,563.6,374.2,563.9,374.6,564.1z"/>
				<path class="st9" d="M369.5,568.5c-1.2,3-0.5,6.1-0.6,9.1c-0.2,6.7-0.1,13.4-0.1,20.1c-1.9-0.9-3.9-1.9-5.8-2.8
					c-0.6-1-0.9-2.1-0.9-3.3c0-5.7-0.2-11.3,0.1-17c0.2-1.7,1.4-2.8,2.7-3.7c0.8-0.5,1.6-0.9,2.2-1.5c0.6-0.5,1.1-1,1.9-1
					C369.3,568.4,369.4,568.4,369.5,568.5z"/>
				<path class="st6" d="M365.1,515.5c5.3,3.1,9.5,7,8.3,14c-0.4,1.7-1,3.3-2.2,4.6c-0.7,0.9-1.4,1.6-2.3,2.2
					c-0.8,0.5-1.6,1.2-2.7,1.3c-0.4,0-0.7-0.1-1.1-0.3c-1-0.9-1-2-1.1-3.2c-0.1-5.2-0.1-10.5,0-15.7
					C364.1,517.4,364.2,516.3,365.1,515.5z"/>
				<path class="st10" d="M352.3,544.3c0.5-0.3,0.9-0.6,0.7-1.3c1-0.8,1.9-0.3,2.8,0.2c0.9,0.7,1.2,1.8,1.2,2.8
					c0,9.8,0.3,19.7-0.2,29.5c-0.1,0.6-0.4,1.1-0.9,1.5c-1.5,0.4-2.9,2.5-4.6,0.4c0-9.6,0-19.3,0-28.9
					C351.4,547,351.2,545.5,352.3,544.3z"/>
				<path class="st11" d="M349.1,541.6c-1.4-0.1-2.7-0.5-3.8-1.2c-0.8-0.9-1-2.1-1-3.3c-0.1-8.7-0.1-17.3,0.1-26
					c0-1.4-0.5-3.8,2.4-3.4c1.4,0,2.7,0.5,3.9,1.2c-1.1,9.1-0.2,18.3-0.5,27.5C350.1,538.2,350.5,540.1,349.1,541.6z"/>
				<path class="st12" d="M371,599.1c0.8-0.2,1.6-0.5,2.3-0.7c0.9,0.8,1.1,1.9,1.1,2.9c0,9,0.3,18-0.1,27c-0.1,2.1,0.4,4,0.5,6
					c-1.1,1.1-2.5,1.9-4,2.5c-1.8-0.3-1.6-1.8-1.6-3c-0.1-10.2-0.1-20.4,0-30.5c0-1.1,0.3-2.1,0.9-3
					C370.4,599.8,370.7,599.4,371,599.1z"/>
				<path class="st13" d="M361.9,604.1c0.7-0.7,1.6-1,2.6-1.2c1.3,1.3,1,3,1,4.5c0,8.3,0,16.5,0,24.8c0,2.3,0.1,4.7,0.4,7
					c-1.3,1-2.9,1.6-4.5,2.1c-1.8-2.4-1.2-5.2-1.2-7.9c0.1-8.5,0.1-17.1-0.1-25.6C360,606.2,360.4,604.9,361.9,604.1z"/>
				<path class="st14" d="M327.4,535.9c-1.3-3.1-0.5-6.4-0.6-9.6c-0.2-7.7-0.1-15.4,0-23.1c1.3,0.1,2.6-0.1,3.8,0.7
					c1,1.1,1,2.5,1,3.9c0,8.3,0,16.6,0,24.9c0,1.4,0.1,2.8-1,3.9C329.5,536.6,328.4,536.6,327.4,535.9z"/>
				<path class="st15" d="M344,610.5c1.2-0.7,2.4-1.2,3.8-1.2c1.3,1.3,1,2.9,1,4.5c0,8.4,0,16.9,0,25.3c0,2.2,0.1,4.4,0.5,6.6
					c-1.2,0.7-2.5,1.1-4,1.2c-2.2-0.4-1.6-2.3-1.6-3.5c-0.2-7.7-0.1-15.4-0.1-23.1C343.7,617,343.3,613.7,344,610.5z"/>
				<path class="st16" d="M355,643.8c-1.1,0.8-2.4,1.2-3.8,1.3c-1.9-0.1-1.7-1.7-1.7-2.8c-0.2-10.4-0.1-20.8,0-31.1
					c0-1,0.4-1.9,0.9-2.7c1-0.6,2.1-1,3.3-1.1c1.3,1.3,1,2.9,1,4.5c0,8.2,0,16.4,0,24.7C354.6,638.9,354.7,641.4,355,643.8z"/>
				<path class="st17" d="M374.8,634.2c-1.9-1.1-1.5-3.2-1.4-4.7c0.5-7.4-0.1-14.8,0.2-22.1c0.1-3-0.2-6-0.3-9
					c0.2-0.4,0.5-0.8,0.7-1.1c0.6-0.2,1.3-0.5,1.9-0.7c1.7-0.1,1.9,1.1,1.9,2.3c-0.5,6.5,0.3,13-0.2,19.5c-0.2,3.2,0.4,6.5,0.2,9.8
					c-0.1,1.5,0.1,3-0.5,4.4C376.6,633.3,375.8,633.9,374.8,634.2z"/>
				<path class="st18" d="M365.8,639.3c-1.9-0.3-1.4-1.9-1.4-3c0-11.1,0-22.2,0-33.3c1-0.5,2.1-1,3.1-1.5c1,0.9,1,2.1,1,3.2
					c0.1,10.6,0,21.2,0,31.7c0,0.5-0.2,1-0.3,1.6C367.7,638.7,366.8,639.1,365.8,639.3z"/>
				<path class="st19" d="M344,610.5c0.6,1,0.7,2.2,0.7,3.4c0,10.1,0,20.3,0,30.4c0,0.9-0.3,1.9,0.7,2.6c-0.7,0.7-1.5,0.6-2.4,0.7
					c-1.4,0.6-1.9-0.3-2.3-1.4c-0.3-1-0.3-2.1-0.3-3.2c0-9.1,0-18.2,0-27.3c0-1.6-0.1-3.2,1-4.5C342.2,610.5,343.1,610.4,344,610.5z
					"/>
				<path class="st20" d="M358.9,512.2c1.4,0.3,2.7,0.9,3.8,1.9c0.4,6.3,0.1,12.6,0.1,19c0,1.8,0,3.6,0.4,5.3
					c0.3,1.1-0.3,1.8-1.1,2.3c-0.6,0.4-1.3,0.7-2.1,0.8c-0.6,0.1-1.2,0-1.7-0.3c-1.3-1-1.3-2.4-1.3-3.7c-0.1-7.3-0.1-14.6,0-21.9
					C357.1,514.4,356.7,512.5,358.9,512.2z"/>
				<path class="st21" d="M342.1,539.6c-0.6-0.2-1.3-0.4-1.9-0.6c-1.8-0.4-2.2-1.8-2.2-3.4c0.1-9-0.2-17.9,0-26.9
					c0-1.1-0.2-2.7,1.6-2.9c1.8,0.1,3.5,0.5,5,1.3c-1.3,1.7-1.6,3.6-1.6,5.6c0,7.4,0,14.8,0,22.2
					C343.1,536.6,343.3,538.3,342.1,539.6z"/>
				<path class="st22" d="M377.3,632.5c-1.4-1.8-0.5-4-0.5-5.8c0.1-5,0-10.1,0.1-15.2c0.1-4.4-0.2-8.9,0.2-13.3
					c0.1-0.8-0.5-1.4-1.2-1.7c0.8-0.6,1.7-1.3,2.5-1.9c2.3,0.2,2.2,1.9,2.1,3.5c-0.1,7.1-0.4,14.1,0.1,21.2
					c0.2,3.5-0.7,6.9-0.2,10.4C379.7,630.9,378.6,631.8,377.3,632.5z"/>
				<path class="st23" d="M354.8,543.5c-0.6-0.2-1.2-0.4-1.7-0.5c-0.5-0.2-1-0.4-1.5-0.5c-0.9-1.3-1-2.8-1-4.2c0-7.8,0-15.6,0-23.4
					c0-1.9-0.2-3.9,1.7-5.2c1.4,0.2,2.6,0.6,3.8,1.4c-0.4,10.2-0.7,20.4,0.2,30.6C356.7,543,355.6,543.2,354.8,543.5z"/>
				<path class="st24" d="M330.6,536.6c0-10.9,0-21.8,0-32.7c1.1,0,2.2-0.1,3.2,0.6c1,1.2,1,2.7,1,4.2c0,7.9,0,15.8,0,23.8
					c0,1.7,0.3,3.7-1.7,4.8C332.3,537.1,331.3,537.3,330.6,536.6z"/>
				<path class="st25" d="M342.1,539.6c0-9.7,0-19.4,0-29.1c0-1.9,0.1-3.5,2.6-3.3c0.7,0,1.5,0,2,0.6c-1.9,0.3-1.4,1.8-1.4,3
					c0,9.9,0,19.7,0,29.6C344.1,540.5,343.1,540,342.1,539.6z"/>
				<path class="st26" d="M356.2,542.3c-1.5-0.2-1.4-1.4-1.4-2.4c0-8.8,0-17.6,0-26.4c0-1-0.3-2.2,1.2-2.5c1,0.1,2,0.5,2.8,1.2
					c-1.1,0.7-0.8,1.9-0.8,2.9c0,7.7,0,15.4,0,23.2c0,1.1-0.5,2.5,1.3,2.8c0.2,1.1-0.7,1.3-1.4,1.7
					C357.3,542.9,356.7,542.9,356.2,542.3z"/>
				<path class="st27" d="M380.5,629.7c-2.5-2.7-0.3-5.8-0.7-8.7c-0.9-6.7,0.6-13.5-0.5-20.2c-0.3-2,1.9-4.4-0.8-6.2
					c1.1-1.1,2.2-2.1,3.2-3.2c1,1,0.6,2.2,0.6,3.3c0,9.5,0,19,0.1,28.5c0,1.1-0.7,2.6,1.1,3.2C382.7,627.8,381.7,628.9,380.5,629.7z
					"/>
				<path class="st28" d="M355,643.8c-2.1-0.4-1.4-2.1-1.4-3.3c0-11,0-22.1,0-33.1c1-0.7,2-1,3.2-1.2c0.6,2,0.3,4,0.3,6
					c0.1,9.3,0,18.6,0,27.8c0,1.1,0,2.1-0.3,3.1C356.4,643.7,355.7,643.8,355,643.8z"/>
				<path class="st29" d="M368.4,638c-1.2-1-0.7-2.4-0.7-3.6c-0.1-11,0-22-0.1-33c0.8-0.4,1.7-0.9,2.5-1.3c0,11.1,0,22.2,0.1,33.3
					c0,1.1-0.4,2.4,0.6,3.3C370.1,637.4,369.3,637.8,368.4,638z"/>
				<path class="st30" d="M341.5,611.1c0,11.1,0,22.1,0,33.2c0,1.2-0.6,2.9,1.5,3.3c-0.6,0.6-1.3,0.6-2.1,0.6c-2.4,0.1-2-1.7-2-3.1
					c0-11.1,0-22.2,0-33.3C339.7,611.2,340.5,611.1,341.5,611.1z"/>
				<path class="st31" d="M350.3,608.4c0,11,0,22.1,0.1,33.1c0,1.2-0.5,2.6,0.8,3.5c-0.5,0.6-1.2,0.6-1.9,0.6
					c-2.1-0.4-1.4-2.1-1.4-3.3c0-11,0-22.1,0-33.1C348.6,608.6,349.4,608.5,350.3,608.4z"/>
				<path class="st32" d="M361.9,604.1c-2,2.7-0.7,5.8-0.9,8.6c-0.3,6.2,0.3,12.4-0.2,18.6c-0.2,3.3,0.3,6.6,0.5,9.9
					c-0.3,0.5-0.8,0.5-1.2,0.5c-1.8,0.7-2-0.7-2.2-1.8c-0.3-1.7-0.6-3.4-0.5-5c0.3-8.8,0.6-17.5-0.1-26.3c-0.1-1.3,0.2-2.5,1.5-3.3
					C359.6,604.7,360.7,604.3,361.9,604.1z"/>
				<path class="st33" d="M358.7,605.4c-0.9,1.5-0.7,3-0.5,4.6c0.1,0.5,0.4,1,0.4,1.5c-0.4,7.4,0.3,14.8-0.2,22.3
					c-0.2,2.6-1,5.8,1.7,8c-0.9,0.8-2,1.1-3.2,1.3c-0.9-0.7-0.7-1.7-0.7-2.6c0-10.4,0-20.8,0-31.2c0-1.1,0-2.1,0.6-3.1
					C357.3,605.8,357.9,605.4,358.7,605.4z"/>
				<path class="st34" d="M339.6,505.9c-0.8,0.6-0.7,1.5-0.7,2.3c0,9.3,0,18.5,0,27.8c0,1.3,0.3,2.3,1.3,3c-1.4,0-2.6-0.5-3.9-1
					c-1-1.4-1-3-1-4.6c0-7.9,0-15.9,0-23.8c0-1.6-0.2-3.2,1.1-4.5C337.5,505.2,338.7,505.2,339.6,505.9z"/>
				<path class="st19" d="M342.7,580.6c0-11.1,0-22.2,0-33.3c0.7-0.7,1.6-0.6,2.5-0.7c0.7,0.6,1,1.4,0.9,2.3
					c-0.1,10.1,0.4,20.2-0.2,30.3c-0.3,0.8-0.8,1.4-1.6,1.7C343.8,581.1,343.2,581,342.7,580.6z"/>
				<path class="st35" d="M352.4,509.6c-0.6,1.8-0.7,3.7-0.7,5.6c0,9.1,0,18.2,0,27.3c-0.9-0.1-1.8-0.2-2.5-0.8c0-9.8,0-19.5,0-29.3
					c0-1.3-0.6-2.9,1.5-3.3C351.3,509,351.9,509,352.4,509.6z"/>
				<path class="st36" d="M336.4,505.1c0,11-0.1,21.9-0.1,32.9c-1-0.3-2.3,0.2-3.2-0.7c0.7-1.2,0.7-2.6,0.7-4c0-9.6,0-19.2,0-28.8
					C334.7,504.6,335.6,504.5,336.4,505.1z"/>
				<path class="st37" d="M351.7,578c1.3-0.4,2.5-0.8,3.8-1.2c1.2,4.1,1,8.3,0.7,12.5c-0.1,0.9-0.5,1.8-1.4,2.4
					c-1.9-0.7-3.8-1.4-5.7-2.1c-1.7-3-0.7-6.3-0.8-9.4c0-0.4,0.1-0.7,0.3-1c0.1-0.3,0.4-0.6,0.7-0.8
					C350,577.9,350.8,577.6,351.7,578z"/>
				<path class="st38" d="M363.2,539.1c-1.1-0.1-1.3-0.9-1.3-1.8c0-7.2,0-14.4,0-21.5c0-0.7,0.2-1.2,0.8-1.6c1,0.2,1.7,0.7,2.4,1.4
					c0,6.3,0,12.6,0,18.9c0,1-0.5,2.4,1.2,2.8c0.3,1-0.6,1.3-1.1,1.8C364.6,539.3,363.9,539.8,363.2,539.1z"/>
				<path class="st39" d="M363.1,573.5c0,7.1,0,14.3-0.1,21.4c-1.2-0.5-2.5-1.1-3.7-1.6c-1-1.1-0.9-2.5-0.9-3.9c0-4.3,0-8.7-0.1-13
					c0.1-1.2,0.9-1.9,1.8-2.4c0.6-0.3,1.1-0.6,1.8-0.8C362.3,573.1,362.8,573.1,363.1,573.5z"/>
				<path class="st40" d="M358.7,575.5c1.3,3,0.5,6.2,0.6,9.3c0.1,2.8,0,5.6,0,8.5c-1.5-0.5-3-1.1-4.5-1.6c1.4-4.5,0.4-9.1,0.4-13.6
					c0-0.4,0.2-0.8,0.3-1.2c0.2-0.2,0.4-0.4,0.7-0.6c0.5-0.6,1-1,1.8-1C358.2,575.1,358.5,575.3,358.7,575.5z"/>
				<path class="st15" d="M345.3,579.9c0-11.1,0-22.2,0-33.3c0.5-0.5,1.2-0.5,1.9-0.5c0.9,0.8,1,1.9,1,2.9c0,9.5,0,19,0,28.5
					c0,0.5-0.1,1-0.3,1.6C347.3,580.2,346.5,580.7,345.3,579.9z"/>
				<path class="st31" d="M347.2,579.3c0-11.1,0-22.2,0-33.3c0.5-0.6,1.2-0.6,1.9-0.6c1.1,1,0.9,2.3,0.9,3.6c0,8.7,0,17.4,0,26.1
					c0,1.3,0,2.6-0.9,3.6c0,0.2,0,0.3-0.1,0.5C348.5,579.8,347.9,579.8,347.2,579.3z"/>
				<path class="st41" d="M351.7,578c-0.6,0.2-1.3,0.4-1.9,0.6c0-9.9,0-19.9,0-29.8c0-1.4-0.4-3,1.3-4c0.3-0.4,0.8-0.6,1.3-0.5
					c0,9.9,0,19.8,0,29.7C352.3,575.3,352.5,576.7,351.7,578z"/>
				<path class="st42" d="M370.7,534c0.9-1.5,1.8-3,2.6-4.4c0.2,11.3,0.4,22.6-0.1,33.8c-0.4,0.4-0.8,0.9-1.2,1.3
					c-1.3-0.5-1.6-1.7-1.6-2.9C370.6,552.5,370.2,543.2,370.7,534z"/>
				<path class="st43" d="M347.2,579.3c0.6,0,1.3-0.1,1.9-0.1c0,3.4,0,6.9,0,10.3c-1.6-0.1-3.1-0.6-4.4-1.3
					c-1.9-2.1-2.1-5.2-0.6-7.6c0.4-0.2,0.9-0.5,1.3-0.7C346,579.9,346.7,580,347.2,579.3z"/>
				<path class="st44" d="M351,544.8c-0.7,1.3-0.6,2.6-0.6,4c0,8.7,0,17.4,0,26.1c0,1.3,0.1,2.6-0.6,3.7c-0.2,0.1-0.4,0.1-0.6,0.1
					c0-11.1,0-22.2,0-33.3C349.6,544.9,350.3,544.8,351,544.8z"/>
				<path class="st45" d="M330,549.9c-3.1,0.6-6.2,1.5-9.5,1.4c-2.7-1.6-1.8-3.7-0.7-5.8c3.2,0.6,6.4,1.3,9.6,1.9
					C330.4,548,330.8,548.8,330,549.9z"/>
				<path class="st46" d="M344,580.6c0.1,2.5-0.5,5.1,0.6,7.6c-2.4-0.5-4.8-0.9-7-1.9c-1.2-1.9-1.2-3.5,1.3-4.4
					c1.3-0.4,2.6-0.9,3.8-1.3C343.2,580.6,343.6,580.6,344,580.6z"/>
				<path class="st47" d="M319.8,545.5c0.3,1.9-0.7,4,0.7,5.8c-1.4,1-3,0.4-4.5,0.6c-1.4-2.3-0.4-4.8-0.6-7.2
					C316.9,544.8,318.4,544.8,319.8,545.5z"/>
				<path class="st48" d="M338.9,581.9c-1.7,1.1-1.2,2.8-1.3,4.4c-3-0.7-6-1.3-8.9-2C332,583,335.5,582.5,338.9,581.9z"/>
				<path class="st49" d="M330,549.9c0.1-0.9-0.2-1.7-0.6-2.5c2,0.1,3.9,0.6,5.7,1.3C333.5,549.6,331.7,549.7,330,549.9z"/>
				<path class="st50" d="M370.7,534c1.1,0.9,0.7,2.2,0.7,3.3c0,7.8,0,15.6,0,23.5c0,1.4-0.1,2.8,0.7,4c-0.4,1.6-1.3,2.8-2.6,3.8
					c0,0,0-0.1,0-0.1c-0.7-0.6-0.9-1.4-0.9-2.3c0.1-10.1-0.3-20.2,0.2-30.2C369.5,535.2,370.1,534.6,370.7,534z"/>
				<path class="st51" d="M363.1,573.5c-0.4,0-0.8,0.1-1.2,0.1c0.5-9.6-0.1-19.2,0.3-28.8c0.1-1.5-0.3-2.9-0.4-4.4
					c0.4-0.4,0.9-0.8,1.3-1.2c0.6-0.2,1.3-0.4,1.9-0.7c1.8,0.3,1.6,1.8,1.6,3c0.1,8.9,0,17.8,0,26.7c0,1.1-0.2,2.1-0.9,3
					C364.9,571.9,364,572.7,363.1,573.5z"/>
				<path class="st52" d="M365.7,571.1c0-9.8,0-19.5-0.1-29.3c0-1.1,0.4-2.4-0.6-3.3c0.4-0.4,0.9-0.8,1.3-1.3c0.2,0,0.4,0,0.6,0
					c1.8,0.3,1.6,1.8,1.6,3c0.1,8.8,0,17.5,0,26.3c0,1.2-0.4,2.3-0.9,3.3C367.3,570.6,366.6,571,365.7,571.1z"/>
				<path class="st53" d="M367.6,569.8c0-9.8,0-19.5,0-29.3c0-1.1,0.4-2.4-0.6-3.3c0.4-0.8,1-1.2,1.9-1.3c1.1,0.9,0.7,2.2,0.7,3.3
					c0,9.8,0,19.5,0,29.3C368.9,568.8,368.3,569.3,367.6,569.8z"/>
				<path class="st13" d="M358,575.4c-0.6,0.2-1.3,0.5-1.9,0.7c0-9.8,0-19.7,0-29.5c0-1.1,0.6-2.7-1.3-3.1c0.5-0.4,0.9-0.8,1.4-1.2
					c0.6,0,1.2-0.1,1.8-0.1c2.1,3.6,1.2,7.6,1.2,11.4c-0.1,5.5,0.3,10.9,0,16.4C359,571.9,359.3,573.8,358,575.4z"/>
				<path class="st54" d="M358,575.4c0.2-8.3,0.6-16.6,0.4-24.9c-0.1-2.7,0.2-5.6-0.4-8.3c0.4-0.4,0.9-0.8,1.3-1.2
					c0.4,0,0.8,0,1.2,0c2.2,0.6,1.5,2.6,1.5,4c-0.1,8.3-0.1,16.6,0,24.9c0,1.6-0.1,3.2-1.5,4.3c-0.6,0.4-1.3,0.9-1.9,1.3
					C358.5,575.5,358.3,575.5,358,575.4z"/>
				<path class="st55" d="M360.6,574.2c0.4-0.9,0.6-1.7,0.6-2.7c0-9.5,0-19,0-28.5c0-0.7,0-1.5-0.7-2c0.4-0.2,0.8-0.4,1.3-0.6
					c1.8,1.6,1.1,3.6,1.1,5.5c0,5.9,0.3,11.8-0.1,17.7c-0.2,3.3,1.3,6.9-1,10C361.6,574,361.1,574.2,360.6,574.2z"/>
			</g>
		</g>
	</g>
</g>
<g id="Layer_5" class="st0">
</g>
<g id="Layer_2" class="st0">
	<g class="st2">
		<g>
			<polygon class="st63" points="208.8,396 198,396 198,381.6 193.8,373.8 198,365.9 198,351.5 211.4,351.5 211.4,355.4 202,355.4 
				202,366.9 198.3,373.8 202,380.6 202,392.1 206.5,392.1 216.2,375.2 216.2,371 213.7,371 213.7,367 220.2,367 220.2,376.3 			"/>
		</g>
		<g>
			<polygon class="st63" points="236.5,396 247.3,396 247.3,381.6 251.5,373.8 247.3,365.9 247.3,351.5 233.9,351.5 233.9,355.4 
				243.4,355.4 243.4,366.9 247,373.8 243.4,380.6 243.4,392.1 238.8,392.1 229.1,375.2 229.1,371 231.6,371 231.6,367 225.2,367 
				225.2,376.3 			"/>
		</g>
		<path class="st3" d="M232.2,393.8l-4.6-7.9l-3.6-6.2h-2.6l-3.6,6.2l-4.6,7.9c-0.2,0.3,0,0.6,0.4,0.6h9.1h9.1
			C232.2,394.4,232.4,394.1,232.2,393.8z M220.2,384.2c0.2,0,0.4,0.2,0.4,0.4s-0.2,0.4-0.4,0.4c-0.2,0-0.4-0.2-0.4-0.4
			S220,384.2,220.2,384.2z M219,388.8c-0.5,0-0.9-0.4-0.9-0.9c0-0.5,0.4-0.9,0.9-0.9c0.5,0,0.9,0.4,0.9,0.9
			C220,388.4,219.5,388.8,219,388.8z M220.6,387c-0.3,0-0.6-0.3-0.6-0.6c0-0.3,0.3-0.6,0.6-0.6c0.3,0,0.6,0.3,0.6,0.6
			C221.2,386.7,220.9,387,220.6,387z"/>
		<circle class="st3" cx="221.7" cy="361.8" r="1.4"/>
		<circle class="st3" cx="216.8" cy="357.6" r="1"/>
		<circle class="st3" cx="227.2" cy="352.3" r="1"/>
		<circle class="st3" cx="223.1" cy="356.2" r="2.4"/>
		<circle class="st3" cx="218.8" cy="352.3" r="2"/>
		<circle class="st3" cx="228.2" cy="360.4" r="1.6"/>
	</g>
</g>
</svg>
